<svg width="1010.89168" height="727.28412" xmlns="http://www.w3.org/2000/svg" data-name="Layer 1">
 <title>unlock</title>

 <g>
  <title>Layer 1</title>
  <path id="svg_1" fill="#5b5a5f" d="m1010.89168,726.28412q-78.13266,-11.44365 -150.28146,-19.73l19.01951,-30.77769c-6.41163,-1.89409 -34.58476,15.65146 -34.58476,15.65146l24.9672,-89.4801c-32.24833,3.10673 -48.65763,94.51337 -48.65763,94.51337l-36.0247,-31.09627l17.43785,34.85367c-147.2123,-15.19523 -274.3507,-21.16492 -381.28967,-21.85348l16.27882,-26.34248c-6.41164,-1.8941 -34.58476,15.65146 -34.58476,15.65146l24.9672,-89.4801c-32.24834,3.10672 -48.65763,94.51337 -48.65763,94.51337l-36.02474,-31.09627l18.46945,36.91575c-89.651,1.08665 -162.76069,5.87171 -219.19088,11.45114c16.46742,-41.07795 72.39365,-79.96014 72.39365,-79.96014c-42.70771,10.43621 -65.112,28.1517 -76.82,44.71011c-0.89495,-50.81752 5.12559,-144.99985 49.85547,-249.09453c0,0 -88.29554,160.40869 -77.04785,268.40786l1.34441,19.17452c-74.83623,8.62484 -112.4612,17.78422 -112.4612,17.78422l1010.89172,15.28413z"/>
  <path id="svg_2" fill="#9b989f" d="m537.52644,29.13006l0,648.2a29.13909,29.13909 0 0 1 -29.13,29.11l-263.15,0a29.07906,29.07906 0 0 1 -29.13,-29.11l0,-648.2a29.12748,29.12748 0 0 1 29.13,-29.13l39.38,0l0,5.05a23.987,23.987 0 0 0 23.98,23.99l133.84,0a23.78923,23.78923 0 0 0 14.22,-4.68a22.28455,22.28455 0 0 0 2.36,-1.98a23.917,23.917 0 0 0 7.4,-17.33l0,-5.05l41.97,0a29.12108,29.12108 0 0 1 29.13,29.13z"/>
  <circle id="svg_3" fill="#5b5a5f" r="7" cy="108" cx="289.42646"/>
  <path id="svg_4" fill="#fac91a" d="m459.02644,22.38006a22.28455,22.28455 0 0 1 -2.36,1.98a125.247,125.247 0 0 0 80.86,60.19l0,-3.12a122.29883,122.29883 0 0 1 -78.5,-59.05z"/>
  <path id="svg_5" fill="#fac91a" d="m399.21644,29.03998l-3.28,0a181.66827,181.66827 0 0 0 141.59,113.05l0,-3.1a178.54983,178.54983 0 0 1 -138.31,-109.95z"/>
  <path id="svg_6" fill="#fac91a" d="m338.79646,29.03998l-3.16,0c26.43,91.74 106.18,160.03 201.89,171.12l0,-3.05c-94.05001,-11.03992 -172.43001,-78.03002 -198.73,-168.07z"/>
  <polygon id="svg_7" fill="#f2f2f2" points="266.426 159.822 264.604 159.822 264.604 158 264.249 158 264.249 159.822 262.426 159.822 262.426 160.178 264.249 160.178 264.249 162 264.604 162 264.604 160.178 266.426 160.178 266.426 159.822"/>
  <polygon id="svg_8" fill="#f2f2f2" points="389.426 68.822 387.604 68.822 387.604 67 387.249 67 387.249 68.822 385.426 68.822 385.426 69.178 387.249 69.178 387.249 71 387.604 71 387.604 69.178 389.426 69.178 389.426 68.822"/>
  <polygon id="svg_9" fill="#f2f2f2" points="284.426 231.822 282.604 231.822 282.604 230 282.249 230 282.249 231.822 280.426 231.822 280.426 232.178 282.249 232.178 282.249 234 282.604 234 282.604 232.178 284.426 232.178 284.426 231.822"/>
  <polygon id="svg_10" fill="#f2f2f2" points="368.426 178.822 366.604 178.822 366.604 177 366.249 177 366.249 178.822 364.426 178.822 364.426 179.178 366.249 179.178 366.249 181 366.604 181 366.604 179.178 368.426 179.178 368.426 178.822"/>
  <polygon id="svg_11" fill="#f2f2f2" points="488.426 211.822 486.604 211.822 486.604 210 486.249 210 486.249 211.822 484.426 211.822 484.426 212.178 486.249 212.178 486.249 214 486.604 214 486.604 212.178 488.426 212.178 488.426 211.822"/>
  <circle id="svg_12" fill="#5b5a5f" r="4" cy="125" cx="467.42646"/>
  <path id="svg_13" fill="#e6e6e6" d="m324.12648,218.79999l-2.27,0.35c0.71,4.54 1.27,9.18 1.68,13.77l2.29,-0.2c-0.41003,-4.64993 -0.98003,-9.32993 -1.7,-13.92z"/>
  <path id="svg_14" fill="#e6e6e6" d="m317.91645,191.45996l-2.2,0.67005c1.33,4.4 2.52,8.91 3.53,13.4l2.25,-0.51c-1.03001,-4.54003 -2.23997,-9.10003 -3.58,-13.56005z"/>
  <path id="svg_15" fill="#e6e6e6" d="m308.00648,165.23999l-2.09,0.96c1.92,4.19 3.72,8.49 5.35,12.79l2.15,-0.81c-1.64999,-4.35003 -3.45999,-8.71002 -5.41,-12.94z"/>
  <path id="svg_16" fill="#e6e6e6" d="m294.60646,140.65998l-1.94,1.23c2.47,3.87994 4.84,7.9 7.04,11.93l2.02,-1.1c-2.21998,-4.07992 -4.62,-8.14002 -7.12,-12.06z"/>
  <path id="svg_17" fill="#e6e6e6" d="m277.94648,118.13006l-1.75,1.49c2.98,3.5 5.88,7.16 8.62,10.86l1.84,-1.37c-2.76005,-3.74006 -5.69004,-7.44008 -8.71,-10.98z"/>
  <path id="svg_18" fill="#e6e6e6" d="m258.36647,98.07006l-1.53,1.71c3.44,3.07 6.81,6.3 10.02,9.59l1.65,-1.61c-3.24999,-3.33007 -6.66002,-6.59008 -10.14,-9.69z"/>
  <path id="svg_19" fill="#e6e6e6" d="m236.24647,80.84998l-1.29,1.9c3.82,2.57 7.6,5.31 11.23,8.14l1.42,-1.81006c-3.68001,-2.85995 -7.50001,-5.62986 -11.36,-8.22994z"/>
  <path id="svg_20" fill="#e6e6e6" d="m216.11647,68.89006l0,2.6c2.39,1.25 4.76,2.56 7.08,3.9l1.15,-1.99q-4.05005,-2.34009 -8.23,-4.51z"/>
  <path id="svg_21" fill="#e6e6e6" d="m323.60675,434.80288c0.373,-2.236 0.71425,-4.5192 1.01475,-6.78518l2.27933,0.30227c-0.30389,2.29157 -0.649,4.5992 -1.02589,6.86071l-2.26819,-0.3778z"/>
  <path id="svg_22" fill="#e6e6e6" d="m317.19773,461.78227l2.19741,0.68431c1.37871,-4.44384 2.62647,-8.99608 3.70743,-13.53149l-2.23928,-0.52959c-1.071,4.48642 -2.29693,8.98189 -3.66556,13.37677z"/>
  <path id="svg_23" fill="#e6e6e6" d="m307.15632,487.61382l2.0863,0.978c1.98369,-4.2078 3.84038,-8.54363 5.52458,-12.88411l-2.14578,-0.83709c-1.66431,4.2935 -3.50124,8.58236 -5.4651,12.7432z"/>
  <path id="svg_24" fill="#e6e6e6" d="m293.64484,511.8474l1.92823,1.25186c2.54321,-3.89939 4.983,-7.94236 7.25441,-12.00964l-2.00526,-1.12476c-2.24176,4.02232 -4.66183,8.0183 -7.17738,11.88254z"/>
  <path id="svg_25" fill="#e6e6e6" d="m276.92816,533.98601l1.74272,1.51c3.05929,-3.52841 6.02513,-7.19843 8.83619,-10.91033l-1.84138,-1.377c-2.77162,3.66889 -5.70785,7.29389 -8.73753,10.77733z"/>
  <path id="svg_26" fill="#e6e6e6" d="m257.35331,553.63113l1.51427,1.72861c3.51621,-3.06749 6.95467,-6.304 10.24042,-9.59211l-1.62648,-1.629c-3.24835,3.25491 -6.65724,6.44643 -10.12821,9.4925z"/>
  <path id="svg_27" fill="#e6e6e6" d="m235.30035,570.42163l1.27021,1.92364c3.88265,-2.56378 7.73865,-5.29636 11.43808,-8.112l-1.39026,-1.83593c-3.664,2.79229 -7.47276,5.49372 -11.31803,8.02429z"/>
  <path id="svg_28" fill="#e6e6e6" d="m224.60646,579.64997c-2.78,1.57 -5.62,3.09 -8.49,4.53l0,-2.58c2.48,-1.26 4.94,-2.59 7.35,-3.94l1.14,1.99z"/>
  <path id="svg_29" fill="#e6e6e6" d="m324.28143,247.10572l2.29863,-0.04178c0.04223,2.3211 0.04537,4.6545 0.00942,6.93606l-2.29844,-0.03589c0.03495,-2.2556 0.03194,-4.56313 -0.00961,-6.85839z"/>
  <path id="svg_30" fill="#fff" d="m226.21644,301.63184l235.21009,0a65.99993,65.99993 0 0 1 65.99993,65.99993l0,8.73639a0,0 0 0 1 0,0l-235.21008,0a65.99993,65.99993 0 0 1 -65.99993,-65.99993l0,-8.73639a0,0 0 0 1 -0.00001,0z"/>
  <path id="svg_31" fill="#5b5a5f" d="m382.31618,705.52149c-0.22949,-0.375 -5.64063,-9.41016 -7.5166,-28.17188c-1.72071,-17.21289 -0.61426,-46.22656 14.43261,-86.69824c28.50586,-76.6709 -6.56933,-138.5332 -6.92773,-139.14941l1.73047,-1.00391c0.09082,0.15625 9.1416,15.92871 14.48828,41.04394a179.06112,179.06112 0 0 1 -7.416,99.80664c-28.457,76.54 -7.30078,112.77344 -7.084,113.13086l-1.70703,1.042z"/>
  <circle id="svg_32" fill="#fac91a" r="13" cy="434" cx="371.1697"/>
  <circle id="svg_33" fill="#fac91a" r="13" cy="482" cx="412.1697"/>
  <circle id="svg_34" fill="#fac91a" r="13" cy="514" cx="384.1697"/>
  <circle id="svg_35" fill="#fac91a" r="13" cy="541" cx="418.1697"/>
  <circle id="svg_36" fill="#fac91a" r="13" cy="583" cx="374.1697"/>
  <path id="svg_37" fill="#5b5a5f" d="m390.16969,706s-13,-32 26,-56l-26,56z"/>
  <path id="svg_38" fill="#5b5a5f" d="m374.18171,705.41953s-5.91642,-34.02934 -51.7085,-33.73768l51.7085,33.73768z"/>
  <circle id="svg_39" opacity="0.2" fill="#fac91a" r="80" cy="339" cx="322.42646"/>
  <circle id="svg_40" opacity="0.2" fill="#fac91a" r="56.33803" cy="339" cx="322.42646"/>
  <circle id="svg_41" fill="#fac91a" r="37.1831" cy="339" cx="322.42646"/>
  <path id="svg_42" fill="#fff" d="m329.18703,330.98012a6.76057,6.76057 0 1 0 -11.03131,5.23894l-2.48982,17.42883l13.52113,0l-2.48983,-17.42883a6.74554,6.74554 0 0 0 2.48983,-5.23894z"/>
  <path id="svg_43" fill="#2f2e41" d="m696.10729,53.30006s-22.302,-19.99486 -52.29427,17.68777s-76.90334,56.13944 -87.66981,70.75107c0,0 44.60394,-18.4568 59.98461,-26.14713s14.61163,-6.15227 14.61163,-6.15227s-20.7639,14.61163 -24.60907,29.22327s-0.769,26.91616 -7.69033,41.5278s132.27379,9.99749 132.27379,9.99749s13.8426,-23.84 9.99743,-48.4491s-1.53811,-85.36274 -44.60398,-88.4389z"/>
  <path id="svg_44" fill="#ffb9b9" d="m653.92462,116.20211s4.84954,33.94676 -15.93419,41.56746s-13.163,18.01256 -13.163,18.01256l31.1756,15.2414l33.254,-10.39186l11.08466,-16.627s-18.01257,-4.15674 -13.163,-16.627s6.23512,-16.627 6.23512,-16.627l-39.48919,-14.54856z"/>
  <path id="svg_45" opacity="0.1" d="m653.92462,116.20211s4.84954,33.94676 -15.93419,41.56746s-13.163,18.01256 -13.163,18.01256l31.1756,15.2414l33.254,-10.39186l11.08466,-16.627s-18.01257,-4.15674 -13.163,-16.627s6.23512,-16.627 6.23512,-16.627l-39.48919,-14.54856z"/>
  <path id="svg_46" fill="#ffb9b9" d="m741.21629,213.19284s-4.84954,63.73677 -3.464,66.50794s0,99.06911 0,99.06911s9.69907,51.95932 -2.77116,54.73048s-9.69908,-58.19444 -9.69908,-58.19444l-12.47021,-80.36375l1.38558,-79.671l27.01887,-2.07834z"/>
  <path id="svg_47" opacity="0.1" d="m741.21629,213.19284s-4.84954,63.73677 -3.464,66.50794s0,99.06911 0,99.06911s9.69907,51.95932 -2.77116,54.73048s-9.69908,-58.19444 -9.69908,-58.19444l-12.47021,-80.36375l1.38558,-79.671l27.01887,-2.07834z"/>
  <path id="svg_48" fill="#ffb9b9" d="m606.12205,405.09594s-22.86211,86.59888 -22.16932,128.85912s9.69911,101.14749 9.69911,101.14749s1.38558,25.63326 -0.69279,28.40443s10.39179,14.54861 10.39179,14.54861l13.163,-7.6207l4.84954,-5.54233l0,-4.8495s-7.6207,-23.55489 -1.38558,-42.26025s9.69907,-65.81514 3.464,-80.36375l42.953,-127.47354l-60.27275,-4.84958z"/>
  <path id="svg_49" fill="#2f2e41" d="m604.73646,666.97093s-8.31349,-10.39187 -13.85582,-6.92787s-14.54861,27.01885 -14.54861,27.01885s-31.17559,29.79 -9.00628,31.17559s31.86839,-6.23511 34.63955,-11.77744s28.40443,-20.091 28.40443,-20.091s-2.77116,-26.32606 -6.92791,-27.01885s-10.39186,10.39185 -10.39186,10.39185l-8.3135,-2.77113z"/>
  <path id="svg_50" fill="#ffb9b9" d="m681.63626,410.63827l0,85.90608a265.61649,265.61649 0 0 0 2.07837,31.1756c2.07838,15.2414 -11.77744,128.85912 -11.77744,128.85912l1.38558,20.09094l17.31977,-1.38559l2.07838,-17.31977l24.94047,-76.207s8.31349,-46.417 4.15675,-63.73677s21.47652,-128.16633 21.47652,-128.16633l-61.6584,20.78372z"/>
  <path id="svg_51" fill="#2f2e41" d="m667.78044,671.82047l5.13095,-1.1155s3.87534,-8.58357 8.72487,-6.5052a52.29963,52.29963 0 0 1 9.64308,5.778l2.13437,3.921s4.84954,10.39187 11.08465,17.31978s13.163,22.16931 2.77117,23.55489s-24.24769,2.07837 -28.40443,-1.38558s-1.38558,-9.00628 -5.54233,-10.39187s-7.6207,-5.54232 -6.92791,-6.92791s1.38558,-24.24761 1.38558,-24.24761z"/>
  <circle id="svg_52" fill="#ffb9b9" r="30.7902" cy="109.2742" cx="681.63626"/>
  <path id="svg_53" fill="#fac91a" d="m623.44184,163.31189l9.15108,-3.19485s-3.60875,5.966 15.7894,9.43s39.48715,4.69031 48.4944,-6.66113c0,0 3.46492,-1.65236 8.31446,3.19718s7.6207,3.464 7.6207,3.464l-3.464,18.01257l-6.92791,33.254l-9.00626,24.9404l-25.63327,-5.54233l-27.7116,-20.09098l-10.3919,-27.01884l0,-24.94048l-6.2351,-4.84954z"/>
  <path id="svg_54" fill="#fac91a" d="m707.96232,173.01097l6.92791,-4.84954s23.55489,4.15675 24.94047,15.2414l-18.01256,34.63955a39.43662,39.43662 0 0 1 -0.69279,29.79c-6.92791,15.9342 -6.23512,19.39815 -6.23512,19.39815l-4.84954,20.78373l-87.98445,6.92791s-3.464,-8.31349 -4.84954,-9.69907s-1.38558,-6.23512 0,-6.23512s0,-2.07838 -1.38558,-4.15675s-2.07837,-2.77116 0,-5.54233s-3.464,-27.71164 -3.464,-27.71164l0,-27.01883l-23.55489,-31.1756s8.31349,-12.47024 12.47024,-13.85582s23.93018,-6.84988 23.93018,-6.84988l4.47425,6.588l6.23512,50.14279l9.00628,30.48281l37.921,-6.4431l14.73113,-24.7325l9.69908,-29.09722l0.69281,-16.62694z"/>
  <path id="svg_55" fill="#fac91a" d="m734.28838,179.24606l5.54232,4.15674s4.84954,38.7963 3.464,41.56746s-25.63327,5.54233 -26.32606,4.15675s17.31974,-49.88095 17.31974,-49.88095z"/>
  <path id="svg_56" fill="#5b5a5f" d="m619.97784,159.84794l6.9279,45.7242s-6.23511,67.89352 -4.84953,81.74934l1.38558,4.15674s-2.77116,-1.38558 -3.464,1.38559s0,11.77744 0,11.77744s-4.15675,4.15675 -5.54233,27.01885s-18.01257,77.59259 -11.77745,79.671s43.64583,12.47024 63.73677,10.39187s92.1412,-26.32606 91.44841,-32.56118s-35.33234,-94.21957 -35.33234,-94.21957s-6.23501,-10.39191 -6.23501,-11.77749s8.31349,-6.92791 6.23512,-12.47024s-13.163,-63.73676 -13.163,-63.73676l7.6207,-41.56746l-10.39192,-2.77121l-7.6207,40.18188s-29.79,14.54861 -60.96561,1.38558l-6.92791,-47.10979l-11.08468,2.77121z"/>
  <path id="svg_57" fill="#2f2e41" d="m653.3102,87.17698s51.26654,35.33234 65.12236,19.39814s-24.24769,-29.79 -24.24769,-29.79l-31.86838,-3.46395l-9.00629,13.85581z"/>
  <path id="svg_58" fill="#fac91a" d="m573.65495,463.04173a27.02739,27.02739 0 1 0 -8.47865,-10.5236l-70.70677,58.87193l-9.41452,-11.17356l-4.22986,2.82912l-4.70726,-5.58677l3.86777,-3.25888l-4.70726,-5.58677l-6.01653,5.06935l2.89678,3.438l-6.44629,5.43151l-2.89677,-3.438l-9.45454,7.96613l4.34516,5.157l3.438,-2.89678l4.70726,5.58678l-4.29752,3.621l8.69032,10.31405l-10.31405,8.69032l10.50081,12.46281l103.22392,-86.97364zm17.65411,-39.492a17.88151,17.88151 0 1 1 -19.33884,16.29433a17.88156,17.88156 0 0 1 19.33884,-16.29437l0,0.00004z"/>
  <path id="svg_59" fill="#ffb9b9" d="m583.95273,221.50634s4.84954,63.73677 3.464,66.50793s0,99.06911 0,99.06911s-9.69907,51.95932 2.77116,54.73049s9.69908,-58.19445 9.69908,-58.19445l12.47023,-80.36375l-1.38558,-79.671l-27.01889,-2.07833z"/>
  <path id="svg_60" fill="#fac91a" d="m594.3446,181.32446l-5.54233,2.07837s-10.39186,43.64583 -7.6207,43.64583s36.02513,4.15675 36.02513,2.77117s-6.23512,-35.33234 -6.23512,-35.33234l-16.62698,-13.16303z"/>
 </g>
</svg>