<svg width="790" height="512.20805" xmlns="http://www.w3.org/2000/svg" data-name="Layer 1">

 <g>
  <title>Layer 1</title>
  <path id="svg_1" fill="#5b5a5f" d="m720.56335,510.69311l-22.56335,-68.0909s24.81818,24.81818 24.81818,45.18181l-4.45454,-47.09091s12.72727,17.18182 11.45454,43.27273s-9.25483,26.72727 -9.25483,26.72727z"/>
  <path id="svg_2" fill="#5b5a5f" d="m236.02093,448.69311l-22.02093,-66.454s24.22155,24.22155 24.22155,44.09565l-4.34745,-45.95885s12.42131,16.76877 11.17917,42.23245s-9.03234,26.08475 -9.03234,26.08475z"/>
  <path id="svg_3" fill="#5b5a5f" d="m579.72555,479.3588c0.03773,43.71478 -86.66489,30.26818 -192.8092,30.35979s-191.53562,13.68671 -191.57335,-30.028s86.63317,-53.29714 192.77748,-53.38876s191.56734,9.34219 191.60507,53.05697z"/>
  <rect id="svg_4" fill="#3f3d56" height="2" width="790" y="509.69312"/>
  <polygon id="svg_5" fill="#a0616a" points="505.336 420.322 491.459 420.322 484.855 366.797 505.336 366.797 505.336 420.322"/>
  <path id="svg_6" fill="#2f2e41" d="m480.00587,416.35743l28.30423,0a0,0 0 0 1 0,0l0,16.85057a0,0 0 0 1 0,0l-43.61336,0a0,0 0 0 1 0,0l0,-1.54149a15.30912,15.30912 0 0 1 15.30913,-15.30908z"/>
  <polygon id="svg_7" fill="#a0616a" points="607.336 499.322 593.459 499.322 586.855 445.797 607.336 445.797 607.336 499.322"/>
  <path id="svg_8" fill="#2f2e41" d="m582.00587,495.35743l28.30423,0a0,0 0 0 1 0,0l0,16.85057a0,0 0 0 1 0,0l-43.61336,0a0,0 0 0 1 0,0l0,-1.54149a15.30912,15.30912 0 0 1 15.30913,-15.30908z"/>
  <path id="svg_9" fill="#a0616a" d="m671.34486,340.30902a10.31591,10.31591 0 0 0 -2.89586,-15.551l-32.23009,-131.2928l-20.60761,8.8664l38.33533,126.949a10.37185,10.37185 0 0 0 17.39823,11.0284z"/>
  <path id="svg_10" fill="#a0616a" d="m646.20767,74.96357a11.38227,11.38227 0 0 0 -17.41522,1.15247l-49.88538,5.72709l7.58861,19.24141l45.36779,-8.49083a11.44393,11.44393 0 0 0 14.3442,-17.63014z"/>
  <path id="svg_11" fill="#9b989f" d="m564,326.69311l21.76811,163.37417l27.09338,-5.578s-3.98437,-118.98157 9.56238,-133.32513s-17.42387,-39.47104 -17.42387,-39.47104l-41,15z"/>
  <path id="svg_12" fill="#9b989f" d="m573,281.69311l-10,15s-77,-31.99929 -77,19s-4.40631,85.60944 -6,88s18.43762,8.59375 28,7c0,0 11.79687,-82.21884 11,-87c0,0 75.53355,37.03335 89.87712,33.84591s17.73232,-14.471 20.12288,-20.84591s-1,-57 -1,-57l-47.81,-14.59036l-7.19,16.59036z"/>
  <path id="svg_13" fill="#ffffff" d="m574.34915,191.63264l-2.85032,-3.42039s-31.92361,-71.82815 -19.3822,-91.21035s67.26762,-22.23252 68.97783,-21.0924s-4.08488,15.9428 -0.09446,22.78361c0,0 -42.394,9.19121 -45.24435,10.33134s21.96615,43.2737 21.96615,43.2737l-2.85031,25.6529l-20.52234,13.68159z"/>
  <path id="svg_14" fill="#ffffff" d="m630.21549,156.28861s-29.64332,3.42041 -30.78349,3.42041s-1.71017,-7.41084 -1.71017,-7.41084l-26.223,35.91406s-12.91922,104.19107 -9.49883,102.48087s66.50531,8.11165 67.07539,3.55114s-0.57008,-27.3631 1.14014,-28.50324s29.64328,-71.82811 29.64328,-71.82811s-2.85032,-14.82168 -12.54142,-19.95227s-17.1019,-17.67202 -17.1019,-17.67202z"/>
  <path id="svg_15" fill="#ffffff" d="m650.73783,184.22181l9.121,9.69109s13.55198,111.35982 6.14117,114.78021s-22,3 -22,3l-14.35458,-52.79286l21.09241,-74.67844z"/>
  <circle id="svg_16" fill="#a0616a" r="26.2388" cy="122.9976" cx="601.72966"/>
  <path id="svg_17" fill="#2f2e41" d="m595.57267,127.09191c-0.35442,-5.44445 -7.22306,-5.631 -12.67878,-5.68255s-11.97836,0.14321 -15.0654,-4.35543c-2.0401,-2.973 -1.65042,-7.10032 0.035,-10.28779s4.45772,-5.639 7.18508,-7.99742c7.04139,-6.08884 14.29842,-12.12936 22.7522,-16.02662s18.36045,-5.472 27.12788,-2.3435c10.77008,3.84307 25.32927,23.62588 26.5865,34.99176s-3.28507,22.95252 -10.9419,31.44586s-25.18188,5.0665 -36.21069,8.088c6.7049,-9.48964 2.28541,-26.73258 -8.45572,-31.164l-0.33417,3.33169z"/>
  <circle id="svg_18" fill="#fb4c38" r="62.98931" cy="403.5046" cx="361.7217"/>
  <path id="svg_19" fill="#fb4c38" d="m319.65625,336.03952a45.15919,45.15919 0 0 1 -41.25537,-26.78614l-99.95215,-225.09179a59.83039,59.83039 0 1 1 111.87012,-41.86426l72.37744,235.41211a45.07978,45.07978 0 0 1 -43.04,58.33008l-0.00004,0z"/>
 </g>
</svg>