<svg width="1060" height="664.07" xmlns="http://www.w3.org/2000/svg" xmlns:xlink="http://www.w3.org/1999/xlink" data-name="Layer 1">
 <defs>
  <linearGradient y2="0.00024" x2="0.49998" y1="1.0001" x1="0.49998" id="fad104b9-db35-42fc-bc00-2b8a23207366">
   <stop stop-opacity="0.25" stop-color="gray" offset="0"/>
   <stop stop-opacity="0.12" stop-color="gray" offset="0.54"/>
   <stop stop-opacity="0.1" stop-color="gray" offset="1"/>
  </linearGradient>
  <linearGradient xlink:href="#fad104b9-db35-42fc-bc00-2b8a23207366" gradientTransform="matrix(-1, 0, 0, 1, 1224.27, 0)" y2="653.3" x2="615" y1="653.3" x1="527.53" id="f2f9dedb-0f43-435f-9543-735f3db0009a"/>
 </defs>
 <title>circles</title>
 <g>
  <title>Layer 1</title>
  <circle stroke="null" id="svg_93" fill="#119195" r="85.60001" cy="126.36924" cx="517.13694"/>
  <path fill="#f2f2f2" transform="translate(-76.1024 -224.191)" d="m104.79625,720.39206a17.16536,17.16536 0 0 1 34.33071,0"/>
  <path fill="#ccc" transform="translate(-76.1024 -224.191)" d="m121.96161,720.39206a0.464,0.464 0 0 1 -0.46393,-0.46392l0,-9.04661a0.46393,0.46393 0 1 1 0.92786,0l0,9.04661a0.464,0.464 0 0 1 -0.46393,0.46392z"/>
  <path fill="#ccc" transform="translate(-76.1024 -224.191)" d="m121.96138,717.28343a0.4618,0.4618 0 0 1 -0.302,-0.11191l-5.56709,-4.77814a0.46392,0.46392 0 1 1 0.60432,-0.704l5.56715,4.77814a0.46394,0.46394 0 0 1 -0.30242,0.816l0.00004,-0.00009z"/>
  <path fill="#f2f2f2" transform="translate(-76.1024 -224.191)" d="m157.6841,720.39206a17.16536,17.16536 0 0 1 34.33071,0"/>
  <path fill="#ccc" transform="translate(-76.1024 -224.191)" d="m174.84946,720.39206a0.46394,0.46394 0 0 1 -0.46393,-0.46392l0,-9.04661a0.46393,0.46393 0 0 1 0.92786,0l0,9.04661a0.464,0.464 0 0 1 -0.46393,0.46392z"/>
  <path fill="#ccc" transform="translate(-76.1024 -224.191)" d="m174.84923,717.28343a0.4618,0.4618 0 0 1 -0.302,-0.11191l-5.56714,-4.77814a0.46394,0.46394 0 1 1 0.60437,-0.704l5.56714,4.77814a0.46393,0.46393 0 0 1 -0.30241,0.816l0.00004,-0.00009z"/>
  <ellipse fill="#5b5a5f" ry="7" rx="30" cy="526.03562" cx="108.16932"/>
  <path fill="#3f3d56" transform="translate(-76.1024 -224.191)" d="m597.25986,692.59679a1,1 0 0 0 0,-2l-9.5,0l0,-4l9.5,0a1,1 0 0 0 0,-2l-81,0a1,1 0 0 0 0,2l9.5,0l0,4l-9.5,0a1,1 0 0 0 0,2l9.5,0l0,4l-9.5,0a1,1 0 0 0 0,2l9.5,0l0,4l-8.5,0a2,2 0 0 0 0,4l8.0918,0a1.49061,1.49061 0 0 0 -0.0918,0.5l0,14a1.5,1.5 0 0 0 3,0l0,-14a1.4906,1.4906 0 0 0 -0.09179,-0.5l57.18359,0a1.49061,1.49061 0 0 0 -0.0918,0.5l0,14a1.5,1.5 0 0 0 3,0l0,-14a1.4906,1.4906 0 0 0 -0.09179,-0.5l8.09179,0a2,2 0 0 0 0,-4l-8.5,0l0,-4l9.5,0a1,1 0 0 0 0,-2l-9.5,0l0,-4l9.5,0zm-69.5,-6l58,0l0,4l-58,0l0,-4zm58,16l-58,0l0,-4l58,0l0,4zm0,-6l-58,0l0,-4l58,0l0,4z"/>
  <path fill="#5b5a5f" d="m216.16934,425.6648c0,-17.66118 -14.3269,-59.57029 -32,-59.57029s-32,41.90911 -32,59.57029a32,32 0 0 0 64.00007,0l-0.00007,0z"/>
  <path fill="#f2f2f2" d="m208.16934,426.43403c0,-17.66118 -14.3269,-59.57029 -32,-59.57029s-32,41.90911 -32,59.57029a32,32 0 0 0 64.00007,0l-0.00007,0z"/>
  <path fill="#ccc" transform="translate(-76.1024 -224.191)" d="m253.27167,722.17563a1.00005,1.00005 0 0 1 -1,-1l0,-89.14062a1,1 0 0 1 2,0l0,89.14062a1,1 0 0 1 -1,1z"/>
  <path fill="#ccc" transform="translate(-76.1024 -224.191)" d="m253.27167,646.64829a1,1 0 0 1 -0.707,-1.707l13.07764,-13.07813a0.99989,0.99989 0 0 1 1.41406,1.41406l-13.07763,13.07813a0.99638,0.99638 0 0 1 -0.70707,0.29294z"/>
  <path fill="#3f3d56" transform="translate(-76.1024 -224.191)" d="m621.27167,722.17563a1.00005,1.00005 0 0 1 -1,-1l0,-89.14062a1,1 0 0 1 2,0l0,89.14062a1,1 0 0 1 -1,1z"/>
  <path fill="#5b5a5f" d="m652.16934,426.43403c0,-17.66118 -14.3269,-59.57029 -32,-59.57029s-32,41.90911 -32,59.57029a32,32 0 0 0 64.00007,0l-0.00007,0z"/>
  <path fill="#f2f2f2" transform="translate(-76.1024 -224.191)" d="m720.2717,650.62512c0,-17.66118 -14.3269,-59.57029 -32,-59.57029s-32,41.90911 -32,59.57029a32,32 0 0 0 64.00007,0l-0.00007,0z"/>
  <path fill="#ccc" transform="translate(-76.1024 -224.191)" d="m689.27167,722.17563a1.00005,1.00005 0 0 1 -1,-1l0,-89.14062a1,1 0 0 1 2,0l0,89.14062a1,1 0 0 1 -1,1z"/>
  <path fill="#ccc" transform="translate(-76.1024 -224.191)" d="m689.27167,646.64829a1,1 0 0 1 -0.707,-1.707l13.07764,-13.07813a0.99989,0.99989 0 0 1 1.41406,1.41406l-13.07763,13.07813a0.99638,0.99638 0 0 1 -0.70707,0.29294z"/>
  <path fill="#e6e6e6" transform="translate(-76.1024 -224.191)" d="m359.27167,376.72671l-16,0a4.505,4.505 0 0 1 -4.5,-4.5l0,-37a4.505,4.505 0 0 1 4.5,-4.5l16,0a4.505,4.505 0 0 1 4.5,4.5l0,37a4.505,4.505 0 0 1 -4.5,4.5z"/>
  <path transform="translate(-76.1024 -224.191)" fill="#e6e6e6" d="m422.27167,721.72671l-82,0a8.50958,8.50958 0 0 1 -8.5,-8.5l0,-331a8.50958,8.50958 0 0 1 8.5,-8.5l82,0a8.5095,8.5095 0 0 1 8.5,8.5l0,331a8.5095,8.5095 0 0 1 -8.5,8.5z"/>
  <path transform="translate(-76.1024 -224.191)" fill="#f2f2f2" d="m373.27167,721.72671l-82,0a8.50958,8.50958 0 0 1 -8.5,-8.5l0,-331a8.50958,8.50958 0 0 1 8.5,-8.5l82,0a8.50958,8.50958 0 0 1 8.5,8.5l0,331a8.50958,8.50958 0 0 1 -8.5,8.5z"/>
  <path fill="#f2f2f2" transform="translate(-76.1024 -224.191)" d="m344.27167,376.72671l-16,0a4.505,4.505 0 0 1 -4.5,-4.5l0,-37a4.505,4.505 0 0 1 4.5,-4.5l16,0a4.505,4.505 0 0 1 4.5,4.5l0,37a4.505,4.505 0 0 1 -4.5,4.5z"/>
  <path fill="#5b5a5f" d="m247.16927,224.53571l-19,0a2.50286,2.50286 0 0 1 -2.5,-2.5l0,-29a2.50286,2.50286 0 0 1 2.5,-2.5l19,0a2.50286,2.50286 0 0 1 2.5,2.5l0,29a2.50286,2.50286 0 0 1 -2.5,2.5z"/>
  <path fill="#5b5a5f" d="m284.16927,224.53571l-19,0a2.50286,2.50286 0 0 1 -2.5,-2.5l0,-29a2.50286,2.50286 0 0 1 2.5,-2.5l19,0a2.50286,2.50286 0 0 1 2.5,2.5l0,29a2.50286,2.50286 0 0 1 -2.5,2.5z"/>
  <path fill="#5b5a5f" d="m247.16927,277.53571l-19,0a2.50286,2.50286 0 0 1 -2.5,-2.5l0,-29a2.50286,2.50286 0 0 1 2.5,-2.5l19,0a2.50286,2.50286 0 0 1 2.5,2.5l0,29a2.50286,2.50286 0 0 1 -2.5,2.5z"/>
  <path fill="#5b5a5f" d="m284.16927,277.53571l-19,0a2.50286,2.50286 0 0 1 -2.5,-2.5l0,-29a2.50286,2.50286 0 0 1 2.5,-2.5l19,0a2.50286,2.50286 0 0 1 2.5,2.5l0,29a2.50286,2.50286 0 0 1 -2.5,2.5z"/>
  <path fill="#5b5a5f" d="m247.16931,330.53562l-19,0a2.50286,2.50286 0 0 1 -2.5,-2.5l0,-29a2.50286,2.50286 0 0 1 2.5,-2.5l19,0a2.50286,2.50286 0 0 1 2.5,2.5l0,29a2.50286,2.50286 0 0 1 -2.5,2.5z"/>
  <path fill="#5b5a5f" d="m284.16931,330.53562l-19,0a2.50286,2.50286 0 0 1 -2.5,-2.5l0,-29a2.50286,2.50286 0 0 1 2.5,-2.5l19,0a2.50286,2.50286 0 0 1 2.5,2.5l0,29a2.50286,2.50286 0 0 1 -2.5,2.5z"/>
  <path fill="#5b5a5f" d="m247.16931,383.53562l-19,0a2.50286,2.50286 0 0 1 -2.5,-2.5l0,-29a2.50286,2.50286 0 0 1 2.5,-2.5l19,0a2.50286,2.50286 0 0 1 2.5,2.5l0,29a2.50286,2.50286 0 0 1 -2.5,2.5z"/>
  <path fill="#5b5a5f" d="m284.16931,383.53562l-19,0a2.50286,2.50286 0 0 1 -2.5,-2.5l0,-29a2.50286,2.50286 0 0 1 2.5,-2.5l19,0a2.50286,2.50286 0 0 1 2.5,2.5l0,29a2.50286,2.50286 0 0 1 -2.5,2.5z"/>
  <path fill="#5b5a5f" d="m247.16931,436.53562l-19,0a2.50286,2.50286 0 0 1 -2.5,-2.5l0,-29a2.50286,2.50286 0 0 1 2.5,-2.5l19,0a2.50286,2.50286 0 0 1 2.5,2.5l0,29a2.50286,2.50286 0 0 1 -2.5,2.5z"/>
  <path fill="#5b5a5f" d="m284.16931,436.53562l-19,0a2.50286,2.50286 0 0 1 -2.5,-2.5l0,-29a2.50286,2.50286 0 0 1 2.5,-2.5l19,0a2.50286,2.50286 0 0 1 2.5,2.5l0,29a2.50286,2.50286 0 0 1 -2.5,2.5z"/>
  <path fill="#e6e6e6" transform="translate(-76.1024 -224.191)" d="m772.27167,551.72671l-16,0a4.50508,4.50508 0 0 1 -4.5,-4.5l0,-21a4.50508,4.50508 0 0 1 4.5,-4.5l16,0a4.50507,4.50507 0 0 1 4.5,4.5l0,21a4.50507,4.50507 0 0 1 -4.5,4.5z"/>
  <path fill="#e6e6e6" transform="translate(-76.1024 -224.191)" d="m907.27167,722.72671l-82,0a8.50951,8.50951 0 0 1 -8.5,-8.5l0,-159a8.50951,8.50951 0 0 1 8.5,-8.5l82,0a8.5095,8.5095 0 0 1 8.5,8.5l0,159a8.5095,8.5095 0 0 1 -8.5,8.5z"/>
  <path fill="#f2f2f2" transform="translate(-76.1024 -224.191)" d="m858.27167,722.72671l-142,0a8.50951,8.50951 0 0 1 -8.5,-8.5l0,-159a8.50951,8.50951 0 0 1 8.5,-8.5l142,0a8.5095,8.5095 0 0 1 8.5,8.5l0,159a8.5095,8.5095 0 0 1 -8.5,8.5z"/>
  <path fill="#f2f2f2" transform="translate(-76.1024 -224.191)" d="m757.27167,551.72671l-16,0a4.50508,4.50508 0 0 1 -4.5,-4.5l0,-21a4.50508,4.50508 0 0 1 4.5,-4.5l16,0a4.50507,4.50507 0 0 1 4.5,4.5l0,21a4.50507,4.50507 0 0 1 -4.5,4.5z"/>
  <path fill="#5b5a5f" d="m702.16931,401.03562l-19,0a2.50295,2.50295 0 0 1 -2.5,-2.5l0,-29a2.50295,2.50295 0 0 1 2.5,-2.5l19,0a2.50294,2.50294 0 0 1 2.5,2.5l0,29a2.50294,2.50294 0 0 1 -2.5,2.5z"/>
  <path fill="#5b5a5f" d="m739.16931,401.03562l-19,0a2.50295,2.50295 0 0 1 -2.5,-2.5l0,-29a2.50295,2.50295 0 0 1 2.5,-2.5l19,0a2.50294,2.50294 0 0 1 2.5,2.5l0,29a2.50294,2.50294 0 0 1 -2.5,2.5z"/>
  <path fill="#5b5a5f" d="m702.16931,454.03562l-19,0a2.50295,2.50295 0 0 1 -2.5,-2.5l0,-29a2.50295,2.50295 0 0 1 2.5,-2.5l19,0a2.50294,2.50294 0 0 1 2.5,2.5l0,29a2.50294,2.50294 0 0 1 -2.5,2.5z"/>
  <path fill="#5b5a5f" d="m739.16931,454.03562l-19,0a2.50295,2.50295 0 0 1 -2.5,-2.5l0,-29a2.50295,2.50295 0 0 1 2.5,-2.5l19,0a2.50294,2.50294 0 0 1 2.5,2.5l0,29a2.50294,2.50294 0 0 1 -2.5,2.5z"/>
  <path fill="#e6e6e6" transform="translate(-76.1024 -224.191)" d="m1122.27167,723.22671l-1045.79528,0a1,1 0 1 1 0,-2l1045.79528,0a1,1 0 0 1 0,2z"/>
  <path fill="#e6e6e6" transform="translate(-76.1024 -224.191)" d="m438.27167,758.22671l-93,0a1,1 0 0 1 0,-2l93,0a1,1 0 1 1 0,2z"/>
  <path fill="#e6e6e6" transform="translate(-76.1024 -224.191)" d="m669.27167,758.22671l-93,0a1,1 0 0 1 0,-2l93,0a1,1 0 1 1 0,2z"/>
  <path fill="#e6e6e6" transform="translate(-76.1024 -224.191)" d="m900.27167,758.22671l-93,0a1,1 0 0 1 0,-2l93,0a1,1 0 1 1 0,2z"/>
  <path fill="#e6e6e6" transform="translate(-76.1024 -224.191)" d="m491.2717,650.62512c0,-17.66118 -14.3269,-59.57029 -32,-59.57029s-32,41.90911 -32,59.57029a32,32 0 0 0 64.00007,0l-0.00007,0z"/>
  <path fill="#f2f2f2" transform="translate(-76.1024 -224.191)" d="m483.2717,650.62512c0,-17.66118 -14.3269,-59.57029 -32,-59.57029s-32,41.90911 -32,59.57029a32,32 0 0 0 64.00007,0l-0.00007,0z"/>
  <path fill="#ccc" transform="translate(-76.1024 -224.191)" d="m452.27167,722.17563a1.00005,1.00005 0 0 1 -1,-1l0,-89.14062a1,1 0 0 1 2,0l0,89.14062a1,1 0 0 1 -1,1z"/>
  <path fill="#ccc" transform="translate(-76.1024 -224.191)" d="m452.27167,646.64829a1,1 0 0 1 -0.707,-1.707l13.07764,-13.07813a0.99989,0.99989 0 0 1 1.41406,1.41406l-13.07763,13.07813a0.99638,0.99638 0 0 1 -0.70707,0.29294z"/>
  <path fill="#5b5a5f" d="m926.16934,426.43403c0,-17.66118 -14.3269,-59.57029 -32,-59.57029s-32,41.90911 -32,59.57029a32,32 0 0 0 64.00007,0l-0.00007,0z"/>
  <path fill="#f2f2f2" transform="translate(-76.1024 -224.191)" d="m994.2717,650.62512c0,-17.66118 -14.3269,-59.57029 -32,-59.57029s-32,41.90911 -32,59.57029a32,32 0 0 0 64.00007,0l-0.00007,0z"/>
  <path fill="#ccc" transform="translate(-76.1024 -224.191)" d="m963.27167,722.17563a1.00005,1.00005 0 0 1 -1,-1l0,-89.14062a1,1 0 0 1 2,0l0,89.14062a1,1 0 0 1 -1,1z"/>
  <path fill="#ccc" transform="translate(-76.1024 -224.191)" d="m963.27167,646.64829a1,1 0 0 1 -0.707,-1.707l13.07764,-13.07813a0.99989,0.99989 0 0 1 1.41406,1.41406l-13.07763,13.07813a0.99638,0.99638 0 0 1 -0.70707,0.29294z"/>
  <path fill="#3f3d56" transform="translate(-76.1024 -224.191)" d="m632.27149,661.72671l-22,0a2.50231,2.50231 0 0 1 -2.5,-2.5l0,-22a2.50231,2.50231 0 0 1 2.5,-2.5l22,0a2.50231,2.50231 0 0 1 2.5,2.5l0,22a2.50231,2.50231 0 0 1 -2.5,2.5z"/>
  <path fill="#ffb8b8" transform="translate(-76.1024 -224.191)" d="m845.83736,672.4401a1.69978,1.69978 0 0 1 1.11111,2.35775l4.348,4.19318l-3.063,0.68665l-3.65937,-4.08718a1.709,1.709 0 0 1 1.26319,-3.1504l0.00007,0z"/>
  <path fill="#119195" transform="translate(-76.1024 -224.191)" d="m851.95175,683.47071l-5.36389,-5.03209a0.7607,0.7607 0 0 1 -0.02082,-1.08921l1.09531,-1.10926a0.76178,0.76178 0 0 1 1.00311,-0.06992l4.495,3.43528l2.80441,-6.80135a2.12261,2.12261 0 0 1 2.89645,-1.09685l0,0a2.10957,2.10957 0 0 1 1.16138,2.24944c-0.509,3.09369 -3.59187,7.1835 -5.3843,9.34606a1.85312,1.85312 0 0 1 -2.066,0.55439a1.84822,1.84822 0 0 1 -0.62065,-0.38649z"/>
  <path fill="#fff" transform="translate(-76.1024 -224.191)" d="m848.94186,678.58917l-3.94907,-5.72789a0.33844,0.33844 0 0 1 0.08646,-0.47021l0.15863,-0.10937a0.33807,0.33807 0 0 1 0.47022,0.0865l3.949,5.72789a0.338,0.338 0 0 1 -0.08642,0.47021l-0.15864,0.10937a0.33838,0.33838 0 0 1 -0.47021,-0.0865l0.00003,0z"/>
  <path fill="#3f3d56" transform="translate(-76.1024 -224.191)" d="m847.83787,678.63176l-3.27741,-4.75377a0.93075,0.93075 0 0 1 0.2377,-1.29313l0.33395,-0.23019l4.33283,6.28452l-0.33391,0.23028l0,0a0.93041,0.93041 0 0 1 -1.29312,-0.23771l-0.00004,0z"/>
  <polygon fill="#ffb8b8" points="772.1320366859436,495.47068226337433 770.0730156898499,495.2336827516556 770.3460259437561,487.2186986207962 773.0479912757874,487.5306798219681 772.1320366859436,495.47068226337433 "/>
  <path fill="#2f2e41" transform="translate(-76.1024 -224.191)" d="m848.52903,721.71841l-6.63808,-0.76612l0.00969,-0.084a2.60081,2.60081 0 0 1 2.88185,-2.28562l0.00016,0l4.0543,0.46793l-0.30792,2.66781z"/>
  <polygon fill="#ffb8b8" points="796.0710625648499,493.9486790895462 794.0910210609436,494.5607091188431 790.7900567054749,487.21470081806183 793.7120537757874,486.3116856813431 796.0710625648499,493.9486790895462 "/>
  <path fill="#2f2e41" transform="translate(-76.1024 -224.191)" d="m873.27167,719.90347l-6.38451,1.97208l-0.02494,-0.08076a2.60082,2.60082 0 0 1 1.71734,-3.25266l0.00016,0l3.89943,-1.20446l0.79252,2.5658z"/>
  <path fill="#2f2e41" transform="translate(-76.1024 -224.191)" d="m845.93587,717.81456a0.843,0.843 0 0 1 -0.56378,-1.02825l1.24092,-14.28517a4.31329,4.31329 0 0 1 0.59931,-1.84257l7.51181,-12.46636l6.722,1.20785l0.04346,0.018c3.267,2.00088 6.16756,11.703 8.97265,21.08579c0.43622,1.45911 0.88724,2.9679 1.32758,4.40984a0.849,0.849 0 0 1 -0.456,1.09461l-2.03534,0.85691a0.84266,0.84266 0 0 1 -1.06969,-0.37389l-10.46366,-19.15639a0.16794,0.16794 0 0 0 -0.13012,-0.08716a0.16313,0.16313 0 0 0 -0.1449,0.05612l-6.07252,6.87162l-2.23162,13.09529l-0.009,0.0284a0.84579,0.84579 0 0 1 -0.99941,0.48152l-2.1889,0.04144l-0.01366,0.00016l-0.03913,-0.00776z"/>
  <path fill="#119195" transform="translate(-76.1024 -224.191)" d="m854.36068,689.55837l-0.04255,-0.01353l-0.01284,-0.04276c-0.03136,-0.10416 -3.10388,-10.50138 -0.33514,-17.12967l0.00285,-0.006c0.08109,-0.15782 2.01243,-3.86872 4.25668,-4.24006l0.05976,-0.0099l0.72935,1.36385c0.22924,0.22987 4.17736,4.32928 2.38546,11.37563c0.16087,0.57776 2.34115,8.51031 1.15554,9.69589a2.17552,2.17552 0 0 1 -1.47946,0.37125a29.87766,29.87766 0 0 1 -6.71965,-1.3647z"/>
  <circle fill="#2f2e41" r="5.24017" cy="437.39551" cx="781.66462"/>
  <circle fill="#ffb8b8" r="4.15174" cy="438.45899" cx="779.58293"/>
  <path fill="#2f2e41" transform="translate(-76.1024 -224.191)" d="m858.35693,666.68297c-0.3788,0.13432 -0.8432,0.25274 -1.14128,-0.02583a1.00952,1.00952 0 0 1 -0.06656,-1.13568a5.13467,5.13467 0 0 0 0.51881,-1.09122a1.67956,1.67956 0 0 0 -0.61643,-1.53793a4.56035,4.56035 0 0 0 -1.50382,-0.75671l-2.90629,-1.03311a3.3578,3.3578 0 0 1 -1.89718,-1.22911a2.27507,2.27507 0 0 1 0.9055,-2.9339a3.69006,3.69006 0 0 1 3.19325,-0.06282a16.49424,16.49424 0 0 0 1.70217,0.681c1.1637,0.307 2.48686,0.03159 3.50947,0.68772a3.2411,3.2411 0 0 1 1.27309,2.827a8.739,8.739 0 0 1 -0.855,3.12622a5.81332,5.81332 0 0 1 -0.94785,1.66535a1.9607,1.9607 0 0 1 -1.65947,0.71518l0.49159,0.10384z"/>
  <circle fill="#2f2e41" r="3.38075" cy="434.85995" cx="786.0596"/>
  <path fill="#fff" transform="translate(-76.1024 -224.191)" d="m856.58371,663.95313a0.33808,0.33808 0 1 1 0.46485,0.313l0,0.74348a0.12678,0.12678 0 1 1 -0.25355,0l0,-0.74348a0.33779,0.33779 0 0 1 -0.2113,-0.313z"/>
  <path fill="#ffb8b8" transform="translate(-76.1024 -224.191)" d="m846.04303,675.98871a1.69978,1.69978 0 0 1 1.86322,1.82263l5.53688,2.41476l-2.63155,1.71117l-4.85447,-2.55543a1.709,1.709 0 0 1 0.08592,-3.39313z"/>
  <path fill="#119195" transform="translate(-76.1024 -224.191)" d="m855.61864,684.19638l-6.78144,-2.847a0.76071,0.76071 0 0 1 -0.39916,-1.01365l0.64,-1.42147a0.76179,0.76179 0 0 1 0.91584,-0.41516l5.41049,1.65315l0.258,-7.35231a2.12261,2.12261 0 0 1 2.33252,-2.03761l0,0a2.10956,2.10956 0 0 1 1.87258,1.70358c0.60125,3.07709 -0.86285,7.985 -1.78913,10.63666a1.85316,1.85316 0 0 1 -1.7432,1.23972a1.84822,1.84822 0 0 1 -0.7165,-0.14591z"/>
  <path fill="#119195" transform="translate(-76.1024 -224.191)" d="m160.26915,682.45671l-10.386,0l0,-3.1529c3.28193,-2.284 6.18976,-2.08543 10.01505,0.18546l0.37095,2.96744z"/>
  <polygon fill="#ffb8b8" points="71.37603235244751,514.2676488161087 69.1020302772522,514.2676488161087 68.76203393936157,505.49769032001495 71.37603235244751,505.49769032001495 71.37603235244751,514.2676488161087 "/>
  <path fill="#2f2e41" transform="translate(-76.1024 -224.191)" d="m148.05795,740.66278l-7.33148,-0.00027l0,-0.09274a2.85355,2.85355 0 0 1 2.85364,-2.85358l0.00018,0l4.4778,0.00018l-0.00014,2.94641z"/>
  <polygon fill="#ffb8b8" points="84.18303155899048,514.2676488161087 86.4560341835022,514.2676488161087 86.79603052139282,505.49769032001495 84.18203210830688,505.49769032001495 84.18303155899048,514.2676488161087 "/>
  <path fill="#2f2e41" transform="translate(-76.1024 -224.191)" d="m159.70512,737.71637l4.4778,-0.00018l0.00018,0a2.85355,2.85355 0 0 1 2.85363,2.85358l0,0.09274l-7.33148,0.00027l-0.00013,-2.94641z"/>
  <path fill="#2f2e41" transform="translate(-76.1024 -224.191)" d="m160.34481,737.33471a0.83831,0.83831 0 0 1 -0.81494,-0.65329l-5.63559,-24.5812a0.27028,0.27028 0 0 0 -0.27154,-0.2177l-0.0014,0a0.27047,0.27047 0 0 0 -0.27082,0.22042l-5.17528,24.41548a0.83861,0.83861 0 0 1 -0.81648,0.66144l-2.46531,0a0.83461,0.83461 0 0 1 -0.83314,-0.88385l1.83625,-30.94566l0.73891,-0.2186l0.01386,0.00018l14.514,0.127l3.09121,30.9116a0.83417,0.83417 0 0 1 -0.76345,0.91283l-3.07944,0.24868q-0.03362,0.00267 -0.06684,0.00267z"/>
  <circle fill="#ffb8b8" r="4.55518" cy="448.05968" cx="78.24875"/>
  <path fill="#3f3d56" transform="translate(-76.1024 -224.191)" d="m151.56059,708.7432a7.86237,7.86237 0 0 1 -2.3605,-0.33217a5.211,5.211 0 0 1 -3.16,-2.666a0.83556,0.83556 0 0 1 -0.06212,-0.62214c0.50237,-1.71463 2.93007,-10.62722 1.38111,-17.71234a7.50849,7.50849 0 0 1 1.06736,-5.77057a7.41425,7.41425 0 0 1 4.80853,-3.2342l0,-0.00019c0.25692,-0.05016 0.51523,-0.09128 0.76767,-0.12243a7.388,7.388 0 0 1 5.98265,1.96838a7.5707,7.5707 0 0 1 2.37685,6.00167l-1.1904,19.1035a0.82715,0.82715 0 0 1 -0.44473,0.6868c-1.37105,0.71845 -5.48965,2.69969 -9.16642,2.69969z"/>
  <path fill="#2f2e41" transform="translate(-76.1024 -224.191)" d="m159.49703,668.89771a5.59279,5.59279 0 0 0 -6.13008,-3.44659l1.43624,1.16059c-1.78445,0.0601 -3.66282,-0.06768 -4.93693,1.18314c0.40562,-0.01126 0.93725,0.85634 1.34287,0.84509a2.127,2.127 0 0 0 -1.781,1.22836a3.4988,3.4988 0 0 0 -0.20661,2.225a25.85138,25.85138 0 0 0 1.59987,3.17887c-0.05289,-1.812 3.5144,-6.13411 5.25638,-5.683a4.7797,4.7797 0 0 0 -2.2071,1.67571a6.47345,6.47345 0 0 1 3.83936,-0.62817a2.717,2.717 0 0 0 0.91525,0.05123a1.11745,1.11745 0 0 0 0.66249,-1.78574l0.20926,-0.00449z"/>
  <path fill="#119195" transform="translate(-76.1024 -224.191)" d="m151.24681,707.5961a0.83528,0.83528 0 0 1 -0.33421,-0.07055l-8.64272,-3.77239a0.82906,0.82906 0 0 1 -0.47353,-0.97867l5.72153,-21.61378a3.12793,3.12793 0 0 1 3.88374,-2.20764l2.28778,0.65293l-1.61054,27.204a0.83691,0.83691 0 0 1 -0.398,0.66207a0.82833,0.82833 0 0 1 -0.43405,0.12403z"/>
  <path fill="#119195" transform="translate(-76.1024 -224.191)" d="m167.24261,702.77425l-0.38025,-1.43363l-0.55078,-2.08461l-0.26525,-0.99965l-0.55077,-2.07906l-3.97453,-15.017a3.12454,3.12454 0 0 0 -3.8836,-2.207l-2.28678,0.65283l1.13316,19.1343l0.11691,1.99745l0.07417,1.2593l0,0.00185l0.11863,1.98633l0.167,2.82461a0.84023,0.84023 0 0 0 0.83268,0.78636a0.84982,0.84982 0 0 0 0.33389,-0.07048l8.64254,-3.77232a0.82834,0.82834 0 0 0 0.47298,-0.97928z"/>
  <polygon fill="#ccc" points="89.94403314590454,474.06568348407745 80.49803400039673,476.5467015504837 80.38103723526001,474.54969227313995 89.39303064346313,471.98569691181183 89.94403314590454,474.06568348407745 "/>
  <polygon fill="#ccc" points="90.76003503799438,477.1496983766556 80.69103479385376,479.79468739032745 80.57203149795532,477.8076878786087 80.57203149795532,477.8057042360306 90.20903253555298,475.06470692157745 90.76003503799438,477.1496983766556 "/>
  <polygon fill="#ccc" points="76.33703088760376,474.9796849489212 76.22003412246704,476.93970692157745 66.9560341835022,474.1807042360306 67.49903345108032,472.1287022829056 76.33703088760376,474.9796849489212 "/>
  <polygon fill="#ccc" points="76.14403009414673,478.23069202899933 66.69103479385376,475.17969715595245 66.14703607559204,477.23670399188995 76.0290322303772,480.17969715595245 76.14403009414673,478.23069202899933 "/>
  <path fill="#ffb8b8" transform="translate(-76.1024 -224.191)" d="m142.95769,704.47199a1.9924,1.9924 0 0 0 1.30632,-2.7617l4.44408,-13.95163l-3.15129,-0.66l-4.07444,13.67854a2.00318,2.00318 0 0 0 1.47533,3.69477l0,0.00002z"/>
  <path fill="#3f3d56" transform="translate(-76.1024 -224.191)" d="m148.83145,680.89986l0,0c0.90489,0.09231 1.41385,1.10973 1.18887,2.37656l-1.07961,6.0792c-0.08093,0.45571 -0.456,0.81654 -0.76769,0.73861l-3.65187,-0.91286c-0.281,-0.07024 -0.3845,-0.46947 -0.22526,-0.86894l2.19232,-5.49965a2.64645,2.64645 0 0 1 2.34324,-1.91292z"/>
  <path fill="#119195" transform="translate(-76.1024 -224.191)" d="m154.33431,663.72484l0,0a5.93363,5.93363 0 0 1 5.93013,5.74938l1.1175,0a0.37094,0.37094 0 0 1 0.37092,0.37093l0,1.48371a0.37093,0.37093 0 0 1 -0.37092,0.37093l-12.61154,0a0.37094,0.37094 0 0 1 -0.37093,-0.37093l0,-1.66915a5.93482,5.93482 0 0 1 5.93484,-5.93487z"/>
  <path fill="#e6e6e6" transform="translate(-76.1024 -224.191)" d="m155.04348,700.41049l-2.62166,0a0.33714,0.33714 0 0 1 -0.33676,-0.30544l-0.52477,-5.37878l4.34474,0l-0.52476,5.37872a0.33715,0.33715 0 0 1 -0.33679,0.3055z"/>
  <path fill="#ccc" transform="translate(-76.1024 -224.191)" d="m155.89803,695.40297l-4.3308,0a0.33875,0.33875 0 0 1 -0.33834,-0.33835l0,-0.812a0.33875,0.33875 0 0 1 0.33834,-0.33835l4.3308,0a0.33875,0.33875 0 0 1 0.33835,0.33835l0,0.812a0.33875,0.33875 0 0 1 -0.33835,0.33835z"/>
  <path fill="#ffb8b8" transform="translate(-76.1024 -224.191)" d="m153.7889,697.52591a1.95179,1.95179 0 0 1 0.30165,0.0592l6.982,-5.98753l-0.40813,-2.19689l3.235,-1.04927l1.10047,3.81893a1.48372,1.48372 0 0 1 -0.63232,1.6646l-8.84244,5.59552a1.94683,1.94683 0 1 1 -1.73619,-1.90456l-0.00004,0z"/>
  <path fill="#3f3d56" transform="translate(-76.1024 -224.191)" d="m161.0907,681.40201l0,0c0.96658,-0.27057 1.93239,0.46513 2.256,1.7185l1.553,6.01462c0.11641,0.45086 -0.10969,0.93 -0.46284,0.9808l-4.13708,0.59507c-0.31835,0.04579 -0.59883,-0.28069 -0.6105,-0.71061l-0.16063,-5.91874a2.60348,2.60348 0 0 1 1.56205,-2.67964z"/>
  <path fill="#e6e6e6" transform="translate(-76.1024 -224.191)" d="m208.11603,697.67395l-3.14975,0a0.40506,0.40506 0 0 1 -0.4046,-0.367l-0.63047,-6.46227l5.21989,0l-0.63047,6.46219a0.40506,0.40506 0 0 1 -0.4046,0.36708z"/>
  <path fill="#ccc" transform="translate(-76.1024 -224.191)" d="m209.1428,691.65771l-5.20322,0a0.407,0.407 0 0 1 -0.40651,-0.40651l0,-0.9756a0.407,0.407 0 0 1 0.40651,-0.4065l5.20322,0a0.407,0.407 0 0 1 0.4065,0.4065l0,0.9756a0.407,0.407 0 0 1 -0.4065,0.40651z"/>
  <path fill="#ccc" transform="translate(-76.1024 -224.191)" d="m239.06111,735.62402a37.32421,37.32421 0 0 1 -5.36456,-10.01183a0.95872,0.95872 0 0 1 0.45273,-1.15408l7.83118,-4.19612a0.94625,0.94625 0 0 1 0.83013,-0.0337a0.96243,0.96243 0 0 1 0.54844,0.64263a22.80109,22.80109 0 0 0 5.0014,9.33422a0.96219,0.96219 0 0 1 0.23135,0.81253a0.94625,0.94625 0 0 1 -0.48785,0.67251l-7.83118,4.19611a0.9587,0.9587 0 0 1 -1.21164,-0.26227z"/>
  <path fill="#fff" transform="translate(-76.1024 -224.191)" d="m239.59551,735.22245a0.28934,0.28934 0 0 0 0.36143,0.07464l7.83123,-4.19621a0.27759,0.27759 0 0 0 0.14541,-0.19987a0.29366,0.29366 0 0 0 -0.0724,-0.25132a23.47222,23.47222 0 0 1 -5.14876,-9.60925a0.2938,0.2938 0 0 0 -0.16891,-0.19943a0.27782,0.27782 0 0 0 -0.24741,0.01023l-7.83107,4.1961a0.28929,0.28929 0 0 0 -0.13807,0.3425a36.65587,36.65587 0 0 0 5.26855,9.83261z"/>
  <path fill="#ccc" transform="translate(-76.1024 -224.191)" d="m242.49457,726.25029l-4.26519,1.88276a0.66921,0.66921 0 0 1 -0.88149,-0.34159l-0.10549,-0.239a0.66919,0.66919 0 0 1 0.34159,-0.88148l4.26519,-1.88276a0.66919,0.66919 0 0 1 0.88148,0.34159l0.1055,0.239a0.66921,0.66921 0 0 1 -0.34159,0.88148z"/>
  <path fill="#ccc" transform="translate(-76.1024 -224.191)" d="m244.05433,729.14699l-4.26519,1.88276a0.66921,0.66921 0 0 1 -0.88149,-0.34159l-0.10549,-0.239a0.66919,0.66919 0 0 1 0.34159,-0.88148l4.26519,-1.88276a0.66921,0.66921 0 0 1 0.88149,0.34159l0.10549,0.239a0.66921,0.66921 0 0 1 -0.34159,0.88148z"/>
  <path fill="#a0616a" transform="translate(-76.1024 -224.191)" d="m234.05103,726.73328a2.39377,2.39377 0 0 1 -0.45951,-3.64161l-1.79874,-25.52613l5.18131,0.50249l0.14231,24.99777a2.40669,2.40669 0 0 1 -3.06537,3.66748z"/>
  <path fill="#3f3d56" transform="translate(-76.1024 -224.191)" d="m232.96571,706.14271a0.9986,0.9986 0 0 1 -0.41417,-0.75774l-0.37965,-6.87992a2.7627,2.7627 0 0 1 5.42494,-0.875l1.66773,6.151a1.00383,1.00383 0 0 1 -0.70537,1.23016l-4.744,1.28626a0.99892,0.99892 0 0 1 -0.84948,-0.15476z"/>
  <polygon fill="#a0616a" points="148.03204584121704,533.92469227314 145.3010277748108,533.92371571064 144.00103998184204,523.3877049684525 148.0330376625061,523.3877049684525 148.03204584121704,533.92469227314 "/>
  <path fill="#2f2e41" d="m142.73939,533.14359l5.87846,0a0,0 0 0 1 0,0l0,3.31712a0,0 0 0 1 0,0l-8.58554,0a0,0 0 0 1 0,0l0,-0.61a2.70708,2.70708 0 0 1 2.70708,-2.70712z"/>
  <polygon fill="#a0616a" points="158.28203058242798,533.92469227314 155.55104303359985,533.92371571064 154.25103998184204,523.3877049684525 158.2830376625061,523.3877049684525 158.28203058242798,533.92469227314 "/>
  <path fill="#2f2e41" d="m152.98926,533.14359l5.87846,0a0,0 0 0 1 0,0l0,3.31712a0,0 0 0 1 0,0l-8.58554,0a0,0 0 0 1 0,0l0,-0.61a2.70708,2.70708 0 0 1 2.70708,-2.70712z"/>
  <path fill="#2f2e41" transform="translate(-76.1024 -224.191)" d="m224.00581,752.80708l-3.00729,-0.14339a1.00247,1.00247 0 0 1 -0.955,-0.99444c-0.79283,-12.23726 -1.89085,-25.35887 -0.20988,-30.428a1.00294,1.00294 0 0 1 1.14675,-0.99944l12.031,1.74646a0.99688,0.99688 0 0 1 0.85866,0.98486c1.536,6.00206 1.60546,16.886 1.54736,28.19474a1.00282,1.00282 0 0 1 -1.00271,1.01032l-3.24209,0a0.998,0.998 0 0 1 -0.99052,-0.8469l-2.00029,-12.71593a0.77988,0.77988 0 0 0 -1.5448,0.0285l-1.58785,13.28085a1.00651,1.00651 0 0 1 -0.99574,0.88368q-0.02365,0 -0.0476,-0.00131z"/>
  <path fill="#3f3d56" transform="translate(-76.1024 -224.191)" d="m226.12285,722.97447a15.13552,15.13552 0 0 0 -5.72208,-1.95993a0.98443,0.98443 0 0 1 -0.68039,-0.37275a0.9978,0.9978 0 0 1 -0.20748,-0.7579l2.88277,-21.40233a7.402,7.402 0 0 1 4.31465,-5.78383a7.1985,7.1985 0 0 1 6.99564,0.54835q0.14819,0.09858 0.29082,0.20128a7.39286,7.39286 0 0 1 2.8157,7.70372c-1.76779,7.23174 -2.375,19.0875 -2.4788,21.3908a0.995,0.995 0 0 1 -0.65019,0.89238a10.046,10.046 0 0 1 -3.39266,0.60406a8.49509,8.49509 0 0 1 -4.16798,-1.06385z"/>
  <circle fill="#a0616a" r="5.47276" cy="460.12785" cx="152.43181"/>
  <path fill="#2f2e41" transform="translate(-76.1024 -224.191)" d="m232.40696,688.64871a1.76772,1.76772 0 0 1 -3.05008,-0.982a1.79476,1.79476 0 0 1 0.00226,-0.34664a8.0347,8.0347 0 0 0 0.35783,-1.95051a1.02286,1.02286 0 0 0 -0.1872,-0.47882c-0.81358,-1.08946 -2.7234,0.48728 -3.49124,-0.499c-0.47081,-0.60475 0.08263,-1.55689 -0.27867,-2.2328c-0.47685,-0.89209 -1.88928,-0.452 -2.775,-0.94057c-0.98549,-0.54357 -0.92655,-2.0556 -0.27783,-2.97529a4.68019,4.68019 0 0 1 3.54809,-1.80634a9.51769,9.51769 0 0 1 4.0091,0.78243a8.012,8.012 0 0 1 3.78814,2.62654a6.41217,6.41217 0 0 1 0.64823,5.45955a10.29156,10.29156 0 0 1 -2.29363,3.34345z"/>
  <path fill="#119195" transform="translate(-76.1024 -224.191)" d="m236.74103,693.96947c-0.09585,-0.45011 -0.918,-1.0651 -2.09451,-1.56646a12.9539,12.9539 0 0 0 -11.69821,1.00271a0.55252,0.55252 0 0 0 -0.51028,0.43451l-3.95739,17.50275l-0.51474,2.27947l-0.34087,1.50852l-0.51473,2.2728l-0.27407,1.21438a0.5588,0.5588 0 0 0 0.49471,0.67961l17.08829,1.47509c0.01556,0 0.0334,0.00223 0.049,0.00223a0.55711,0.55711 0 0 0 0.5526,-0.52141l0.16266,-2.47556l0.17386,-2.64714l0.07572,-1.14755l0.17158,-2.64044l1.1386,-17.34456l0,-0.01558l-0.00222,-0.01337z"/>
  <path fill="#a0616a" transform="translate(-76.1024 -224.191)" d="m208.70208,695.07118a2.346,2.346 0 0 1 0.05332,0.36546l9.57191,5.522l2.32659,-1.33937l2.48028,3.247l-4.97723,3.54746l-10.92009,-8.61493a2.33871,2.33871 0 1 1 1.46522,-2.72766l0,0.00004z"/>
  <path fill="#3f3d56" transform="translate(-76.1024 -224.191)" d="m218.66918,700.48908a0.99864,0.99864 0 0 1 0.28815,-0.81405l4.87167,-4.87281a2.7627,2.7627 0 0 1 4.27109,3.45738l-3.46935,5.346a1.00383,1.00383 0 0 1 -1.38695,0.29527l-4.12319,-2.67578a0.99892,0.99892 0 0 1 -0.45142,-0.73601z"/>
  <polygon fill="#ccc" points="159.5020318031311,487.1516820192337 159.33104181289673,489.79270374774933 141.86302423477173,489.4316807985306 142.37802362442017,487.1516820192337 159.5020318031311,487.1516820192337 "/>
  <polygon fill="#ccc" points="159.25503778457642,490.93970692157745 159.08102655410767,493.58667957782745 141.00804376602173,493.2126866579056 141.52304315567017,490.93970692157745 159.25503778457642,490.93970692157745 "/>
  <path fill="#119195" transform="translate(-76.1024 -224.191)" d="m228.64134,673.68588l0,0a7.12888,7.12888 0 0 0 -7.12468,6.90751l-1.34263,0a0.44566,0.44566 0 0 0 -0.44564,0.44565l0,1.78258a0.44566,0.44566 0 0 0 0.44564,0.44565l15.152,0a0.44566,0.44566 0 0 0 0.44565,-0.44565l0,-2.00542a7.13029,7.13029 0 0 0 -7.13034,-7.13032z"/>
  <path fill="#ff6584" transform="translate(-76.1024 -224.191)" d="m268.77167,746.22671l-1.52832,0c-0.00976,-0.18506 -2.06152,-5 -2.06152,-5l-1.24023,-3l-0.81983,-2l-1.24023,-3l-1.41992,-3.45a0.70848,0.70848 0 0 0 -1.37989,0l-1.41992,3.45l-1.24023,3l-0.81983,2l-1.24023,3s-2.05176,4.81494 -2.06153,5l-1.52832,0a1.5,1.5 0 0 0 0,3l18,0a1.5,1.5 0 0 0 0,-3z"/>
  <path fill="#ff6584" transform="translate(-76.1024 -224.191)" d="m267.77167,772.22671l-0.59228,0c0.0542,-0.12793 -2.57764,-6.86 -2.57764,-6.86l-1.58008,-3.85l-1.06005,-2.58l-1.58008,-3.85l-1.71973,-4.17a0.90632,0.90632 0 0 0 -1.76025,0l-1.71973,4.17l-1.58008,3.85l-1.07031,2.58l-1.57959,3.85s-2.62207,6.73206 -2.56787,6.86l-0.61231,0a1.5,1.5 0 0 0 0,3l20,0a1.5,1.5 0 0 0 0,-3z"/>
  <polygon fill="#f2f2f2" points="187.0190453529358,512.0356541872025 180.3190484046936,512.0356541872025 181.5590386390686,509.03565418720245 185.77903985977173,509.03565418720245 187.0190453529358,512.0356541872025 "/>
  <polygon fill="#f2f2f2" points="189.07904291152954,517.0356541872025 178.2590355873108,517.0356541872025 179.49904108047485,514.0356541872025 187.83902215957642,514.0356541872025 189.07904291152954,517.0356541872025 "/>
  <polygon fill="#f2f2f2" points="185.85902643203735,534.745737195015 177.49904108047485,534.745737195015 179.07904291152954,530.8957005739212 184.27903985977173,530.8957005739212 185.85902643203735,534.745737195015 "/>
  <polygon fill="#f2f2f2" points="188.49904108047485,541.1757298707962 174.84903192520142,541.1757298707962 176.4290337562561,537.3256932497025 186.9190239906311,537.3256932497025 188.49904108047485,541.1757298707962 "/>
  <path fill="#ffb8b8" transform="translate(-76.1024 -224.191)" d="m488.45642,688.97276a1.4856,1.4856 0 0 0 -0.18822,-2.27022l-0.75025,-4.946l-3.08173,0.96992l1.68828,4.41266a1.49366,1.49366 0 0 0 2.33192,1.83365l0,-0.00001z"/>
  <path fill="#119195" transform="translate(-76.1024 -224.191)" d="m485.28171,686.64587l-1.901,-8.87808a5.08388,5.08388 0 0 1 1.45184,-4.75413c2.43331,-2.34487 5.5607,-5.30044 6.641,-6.065a5.56962,5.56962 0 0 1 3.48457,-1.02856l0.02608,0.00287l1.63525,1.54539l-3.56224,5.86412l-5.40783,3.38832l0.6018,8.70167l-2.96947,1.2234z"/>
  <rect fill="#ccc" rx="0.62569" height="1.25139" width="9.229" y="450.39007" x="407.23366"/>
  <rect fill="#ccc" rx="0.62569" height="1.25139" width="9.229" y="463.99893" x="407.23366"/>
  <path fill="#ccc" transform="translate(-76.1024 -224.191)" d="m488.02873,722.29039a0.31288,0.31288 0 0 1 -0.31163,-0.2852l-3.98819,-46.77069a0.31285,0.31285 0 1 1 0.62325,-0.05529l3.67206,43.21227l3.56769,-43.21151a0.31286,0.31286 0 1 1 0.6234,0.05377l-3.87488,46.77068a0.3129,0.3129 0 0 1 -0.31132,0.286l-0.00038,-0.00003z"/>
  <circle fill="#ffb8b8" r="4.10437" cy="435.75255" cx="420.87921"/>
  <polygon fill="#ffb8b8" points="408.6470513343811,496.2237035036087 406.69505548477173,495.60169422626495 408.16603326797485,487.7766820192337 411.0470452308655,488.69468128681183 408.6470513343811,496.2237035036087 "/>
  <path fill="#2f2e41" transform="translate(-76.1024 -224.191)" d="m484.64083,722.14595l-6.28372,-2.00288l0.0519,-0.16322a2.476,2.476 0 0 1 3.10717,-1.60517l3.92762,1.25192l-0.80297,2.51935z"/>
  <polygon fill="#ffb8b8" points="422.8490471839905,496.1826878786087 420.80003595352173,496.1826878786087 419.8250298500061,488.2806798219681 422.8490471839905,488.2806798219681 422.8490471839905,496.1826878786087 "/>
  <path fill="#2f2e41" transform="translate(-76.1024 -224.191)" d="m493.02947,722.19827l6.28242,0l0,-2.33131l-3.96593,0a2.31914,2.31914 0 0 0 -2.31649,2.3165l0,0.01481z"/>
  <path fill="#2f2e41" transform="translate(-76.1024 -224.191)" d="m498.89109,717.80971l-0.69145,-0.10319a10.45179,10.45179 0 0 1 -2.55567,-0.47737c-0.17,-0.0747 -0.182,-1.20342 -0.0799,-7.54836c0.07489,-4.65742 0.16815,-10.45373 -0.0129,-13.56547a0.54739,0.54739 0 0 0 -1.04853,-0.18469c-1.56042,3.60355 -4.17842,11.6677 -5.9108,17.0039c-0.60259,1.85623 -1.07855,3.32232 -1.37967,4.20114a0.70762,0.70762 0 0 1 -0.83742,0.4533c-1.42564,-0.35638 -1.33032,-0.50792 -3.36085,-1.0331a0.70213,0.70213 0 0 1 -0.51334,-0.82618c0.36726,-1.732 7.08825,-29.8143 7.6027,-32.48381a0.70417,0.70417 0 0 1 0.82985,-0.55871c1.51322,0.3049 2.43381,0.62836 3.9292,0.94114c1.61357,0.33751 3.2821,0.68656 4.90958,1.01232l0,0a0.69812,0.69812 0 0 1 0.4097,0.25113a4.35786,4.35786 0 0 0 1.63206,1.09634c0.42623,0.20378 -0.53962,0.18542 -0.16841,0.47928c1.50321,1.19 -0.65847,25.35434 -1.96462,30.812a0.70626,0.70626 0 0 1 -0.78953,0.53038l0,-0.00005z"/>
  <path fill="#2f2e41" transform="translate(-76.1024 -224.191)" d="m498.73097,663.53509c-0.23962,-1.01677 0.97173,-3.20458 0.73211,-4.22135c-0.16228,-0.68858 -1.78144,-0.2205 -2.15931,-0.81857a2.17183,2.17183 0 0 0 -1.71818,-1.09053c-0.81309,-0.00912 -1.61317,0.594 -2.3834,0.33334a1.53534,1.53534 0 0 1 -0.68339,-2.07667a3.73159,3.73159 0 0 1 1.81881,-1.59517a5.49069,5.49069 0 0 1 4.03642,-0.67843a6.63424,6.63424 0 0 1 2.1357,1.34216a7.44265,7.44265 0 0 1 1.61728,1.64166a4.41066,4.41066 0 0 1 0.06939,4.32809a6.5057,6.5057 0 0 1 -3.366,2.89654"/>
  <path fill="#119195" transform="translate(-76.1024 -224.191)" d="m488.65287,687.19677c0.443,-0.74 1.11555,-4.2074 1.94494,-10.02731c0.56467,-3.973 1.05666,-8.00984 1.30077,-10.07191a0.99153,0.99153 0 0 1 0.5568,-0.78235q0.23762,-0.11469 0.4724,-0.21707a10.82735,10.82735 0 0 1 11.5508,1.6229l0.01837,0.01733l0.00474,0.02475c0.00878,0.04583 0.85655,4.61419 -0.87989,7.70066c-1.71256,3.04537 -1.73253,11.11021 -1.73253,11.19132l0,0.10365l-0.09972,-0.02842c-2.6642,-0.76126 -12.95578,0.57055 -13.05947,0.58415l-0.16024,0.02092l0.08303,-0.13862z"/>
  <rect fill="#ccc" rx="0.62569" height="1.25139" width="9.229" y="452.42358" x="419.43471"/>
  <rect fill="#ccc" rx="0.62569" height="1.25139" width="9.229" y="466.03244" x="419.43471"/>
  <path fill="#ccc" transform="translate(-76.1024 -224.191)" d="m500.22977,722.44681a0.31287,0.31287 0 0 1 -0.31162,-0.2852l-3.9882,-44.8936a0.31285,0.31285 0 0 1 0.62326,-0.0553l3.67206,41.33519l3.56769,-41.33442a0.31286,0.31286 0 1 1 0.6234,0.05377l-3.87489,44.8936a0.31288,0.31288 0 0 1 -0.31131,0.286l-0.00039,-0.00004z"/>
  <path fill="#ffb8b8" transform="translate(-76.1024 -224.191)" d="m497.65394,690.42171a1.48562,1.48562 0 0 1 1.39159,-1.80356l3.31737,-3.74446l2.06,2.48878l-3.815,2.787a1.49366,1.49366 0 0 1 -2.954,0.27223l0.00004,0.00001z"/>
  <path fill="#119195" transform="translate(-76.1024 -224.191)" d="m499.58541,687.81551l5.23348,-6.978l-2.69869,-5.78294l0.19595,-6.85851l2.2125,-0.40878l0.02345,0.01176a5.56962,5.56962 0 0 1 2.36636,2.7569c0.49146,1.22878 1.51089,5.40929 2.27949,8.7a5.08388,5.08388 0 0 1 -1.36447,4.77994l-6.42,6.42009l-1.82807,-2.64046z"/>
  <path fill="#ccc" transform="translate(-76.1024 -224.191)" d="m477.64696,720.50641l7.16,1.72387a0.61357,0.61357 0 0 0 0.71246,-0.33255l6.15055,-16.35285a0.50387,0.50387 0 0 0 0.00054,-0.39824a0.57,0.57 0 0 0 -0.32767,-0.30673l-5.38325,-2.05581a0.64738,0.64738 0 0 0 -0.52785,0.02917a0.54923,0.54923 0 0 0 -0.28788,0.35226l-0.00015,0.00076l-3.79954,14.41268l-0.05644,0.00351a5.21824,5.21824 0 0 0 -3.17949,1.32532a2.07914,2.07914 0 0 0 -0.46128,1.59861z"/>
  <rect fill="#b3b3b3" transform="rotate(-83.9548 -0.625966 100.727) translate(-248.368 806.564)" height="6.56433" width="0.3129" y="708.55842" x="485.92337"/>
  <rect fill="#b3b3b3" transform="rotate(-65.7756 -0.625963 100.727) translate(-350.241 580.887)" height="5.76036" width="0.31291" y="712.36102" x="484.6692"/>
  <polygon fill="#b3b3b3" points="413.94505548477173,485.64869129657745 407.75303888320923,483.5976964235306 407.8820366859436,483.3126927614212 414.073046207428,485.36268055438995 413.94505548477173,485.64869129657745 "/>
  <polygon fill="#b3b3b3" points="414.57103204727173,484.24070179462433 408.37904596328735,481.25168812274933 408.5070366859436,480.96570789813995 414.6990532875061,483.95469105243683 414.57103204727173,484.24070179462433 "/>
  <rect fill="#b3b3b3" transform="rotate(-49.4948 -0.625966 100.727) translate(-375.943 360.657)" height="5.8713" width="0.3128" y="715.45633" x="483.69133"/>
  <rect fill="#b3b3b3" transform="rotate(-24.3933 -0.625967 100.727) translate(-288.714 30.056)" height="4.3402" width="0.31283" y="717.50141" x="481.04712"/>
  <path fill="#a0616a" transform="translate(-76.1024 -224.191)" d="m654.9479,690.28254a1.86312,1.86312 0 0 1 -1.29111,-2.54844l-6.86818,-15.517l3.92895,-0.98958l5.51577,15.56392a1.87319,1.87319 0 0 1 -1.28543,3.49114l0,-0.00004z"/>
  <path fill="#119195" transform="translate(-76.1024 -224.191)" d="m648.06325,677.07911a0.83448,0.83448 0 0 1 -0.45877,-0.52287l-1.20085,-4.01712a2.32,2.32 0 0 1 4.19664,-1.97941l2.3223,3.5072a0.83539,0.83539 0 0 1 -0.3424,1.21775l-3.82124,1.78867a0.83443,0.83443 0 0 1 -0.69568,0.00578z"/>
  <path fill="#3f3d56" transform="translate(-76.1024 -224.191)" d="m662.0447,675.07776l-4.21288,2.98267a0.31621,0.31621 0 0 1 -0.37131,0l-1.13839,-0.85481a0.31212,0.31212 0 0 1 -0.0204,-0.4876l3.24177,-2.89086a0.32029,0.32029 0 0 1 0.31622,-0.0612l2.1095,0.75484a0.31826,0.31826 0 0 1 0.07549,0.557l0,-0.00004z"/>
  <path fill="#fff" transform="translate(-76.1024 -224.191)" d="m661.70162,674.79517a0.11338,0.11338 0 0 0 -0.06545,-0.14514l-1.9001,-0.67983a0.11384,0.11384 0 0 0 -0.11246,0.02083l-2.924,2.60753l-0.016,0.01728a0.10875,0.10875 0 0 0 0.02507,0.15226l1.02385,0.76874a0.11156,0.11156 0 0 0 0.13261,-0.00119l3.79659,-2.688a0.11238,0.11238 0 0 0 0.03989,-0.05248z"/>
  <polygon fill="#a0616a" points="570.5880303382874,495.3546849489212 572.7140069007874,495.3546849489212 573.7259697914124,487.15369617938995 570.5880303382874,487.15369617938995 570.5880303382874,495.3546849489212 "/>
  <path fill="#2f2e41" transform="translate(-76.1024 -224.191)" d="m646.14803,718.8516l4.18723,-0.00017l0.00017,0a2.6684,2.6684 0 0 1 2.66846,2.66842l0,0.08671l-6.85574,0.00026l-0.00012,-2.75522z"/>
  <polygon fill="#a0616a" points="563.4770684242249,495.3546849489212 565.6039605140686,495.3546849489212 566.6150078773499,487.15369617938995 563.4770684242249,487.15369617938995 563.4770684242249,495.3546849489212 "/>
  <path fill="#2f2e41" transform="translate(-76.1024 -224.191)" d="m639.03743,718.8516l4.18724,-0.00017l0.00016,0a2.66838,2.66838 0 0 1 2.66846,2.66842l0,0.08671l-6.85573,0.00026l-0.00013,-2.75522z"/>
  <path fill="#2f2e41" transform="translate(-76.1024 -224.191)" d="m639.12868,717.03951a0.93422,0.93422 0 0 1 -0.23054,-0.60142c-0.50674,-5.21437 0.87239,-32.6254 4.05907,-34.96607l0.01972,-0.01914l9.32664,-1.6104l0,0l0.17343,0.17343c0.01346,0.24168 1.70917,24.26861 -2.97345,36.53109a0.78045,0.78045 0 0 1 -0.72708,0.49606l-1.86195,0a0.78039,0.78039 0 0 1 -0.778,-0.84157l1.50747,-22.9607a0.26014,0.26014 0 0 0 -0.51352,-0.07587l-4.24553,23.304a0.78516,0.78516 0 0 1 -0.7049,0.61225l-2.44515,0.18105q-0.029,0.002 -0.05784,0.002a0.78124,0.78124 0 0 1 -0.54837,-0.22471z"/>
  <circle fill="#a0616a" r="4.25959" cy="437.33632" cx="575.29869"/>
  <path fill="#119195" transform="translate(-76.1024 -224.191)" d="m641.14145,685.20231a1.00946,1.00946 0 0 1 -0.28936,-0.68481l1.73946,-8.1436c-1.38743,-5.89658 0.45974,-7.002 2.54444,-8.11942l-0.01334,-0.00691l0.87062,-2.35621a0.73624,0.73624 0 0 1 1.02969,-0.47665l4.43971,2.35886a0.87838,0.87838 0 0 1 0.412,0.51848a1.10124,1.10124 0 0 1 -0.01457,0.71608l-0.32784,0.88729c0.84775,1.13241 2.15876,5.61134 0.77133,7.34563l1.047,5.77968a0.91242,0.91242 0 0 1 -0.65,0.97258l-10.93957,1.40376a0.64689,0.64689 0 0 1 -0.1291,0.013a0.7062,0.7062 0 0 1 -0.49047,-0.20776z"/>
  <path fill="#a0616a" transform="translate(-76.1024 -224.191)" d="m657.06712,675.86284a1.8255,1.8255 0 0 0 -0.19322,0.21283l-8.58044,-0.59291l-0.9205,-1.87579l-3.01247,1.01919l1.30685,3.47908a1.38742,1.38742 0 0 0 1.40374,0.89558l9.75711,-0.73994a1.8205,1.8205 0 1 0 0.23893,-2.398l0,-0.00004z"/>
  <path fill="#119195" transform="translate(-76.1024 -224.191)" d="m647.97318,675.51262l-3.7398,1.24506a0.78045,0.78045 0 0 1 -1.01511,-0.60509l-0.68149,-3.87012a2.16741,2.16741 0 0 1 4.11686,-1.35721l1.76939,3.49456a0.78043,0.78043 0 0 1 -0.44985,1.0928z"/>
  <circle fill="#2f2e41" r="3.46858" cy="430.5042" cx="572.90606"/>
  <path fill="#2f2e41" transform="translate(-76.1024 -224.191)" d="m655.43341,662.054a1.81518,1.81518 0 0 0 1.00408,-0.08414a1.19242,1.19242 0 0 0 0.59611,-0.89948c0.64626,-4.29395 -3.005,-3.94074 -3.43688,-4.12671a4.7327,4.7327 0 0 1 -0.76364,-0.55724a3.57027,3.57027 0 0 0 -1.99491,-0.43875a5.7521,5.7521 0 0 0 -2.4241,0.29638a3.631,3.631 0 0 0 -1.61129,1.48519a7.49859,7.49859 0 0 0 -0.79895,2.06956a5.16471,5.16471 0 0 0 -0.13588,2.537a3.13733,3.13733 0 0 0 2.84755,2.282a2.34714,2.34714 0 0 1 1.23883,-2.5711a3.57989,3.57989 0 0 1 2.36152,-0.28119a10.39628,10.39628 0 0 0 1.56644,0.19507c0.51645,0.01932 1.13654,0.0496 1.55112,0.09341z"/>
  <path fill="#f2f2f2" transform="translate(-76.1024 -224.191)" d="m988.79625,720.39206a17.16536,17.16536 0 0 1 34.33071,0"/>
  <path fill="#ccc" transform="translate(-76.1024 -224.191)" d="m1005.96161,720.39206a0.464,0.464 0 0 1 -0.46393,-0.46392l0,-9.04661a0.46393,0.46393 0 0 1 0.92786,0l0,9.04661a0.464,0.464 0 0 1 -0.46393,0.46392z"/>
  <path fill="#ccc" transform="translate(-76.1024 -224.191)" d="m1005.96138,717.28343a0.4618,0.4618 0 0 1 -0.302,-0.11191l-5.56709,-4.77814a0.46392,0.46392 0 1 1 0.60432,-0.704l5.56715,4.77814a0.46394,0.46394 0 0 1 -0.30242,0.816l0.00004,-0.00009z"/>
  <path fill="#f2f2f2" transform="translate(-76.1024 -224.191)" d="m1041.6841,720.39206a17.16536,17.16536 0 0 1 34.33071,0"/>
  <path fill="#ccc" transform="translate(-76.1024 -224.191)" d="m1058.84946,720.39206a0.46394,0.46394 0 0 1 -0.46393,-0.46392l0,-9.04661a0.46393,0.46393 0 0 1 0.92786,0l0,9.04661a0.464,0.464 0 0 1 -0.46393,0.46392z"/>
  <path fill="#ccc" transform="translate(-76.1024 -224.191)" d="m1058.84923,717.28343a0.4618,0.4618 0 0 1 -0.302,-0.11191l-5.56714,-4.77814a0.46394,0.46394 0 1 1 0.60437,-0.704l5.56714,4.77814a0.46393,0.46393 0 0 1 -0.30241,0.816l0.00004,-0.00009z"/>
  <ellipse id="svg_1" stroke-miterlimit="10" stroke="#ffffff" fill="none" ry="24" rx="119.5" cy="568.07" cx="811.5"/>
  <path id="svg_2" fill="url(#fad104b9-db35-42fc-bc00-2b8a23207366)" d="m360.54,376.89a27.37,27.37 0 0 0 1.19,2.61l0,0.11s5.66,20.91 8.31,25.3c0.77,1.27 1.64,2.65 2.5,4a8.89,8.89 0 0 0 0,3c0.8,4.66 1.77,11.07 1.33,12.48s0.53,4.92 -1,6.14s-3.1,3.34 1.59,6.15c0,0 0.88,2.37 0.09,2.9c-0.09,0.06 0,0.19 0.22,0.36c-1.29,3.82 -3.18,10 -2,10.44c0.65,0.25 2.41,-0.67 4.34,-1.91c0.05,0.25 0.09,0.52 0.14,0.79a38.15,38.15 0 0 0 1.42,6.07c0.86,1.91 1.72,5.13 1.26,6.19s1.26,3.42 0.86,4.35s1.33,3.95 1.33,3.95s1.72,5.86 1.65,7.84s1.86,14.75 1.86,14.75s-2,6.59 -1,8.5s1.65,8.5 0,10.94s-3.72,7.83 -3.05,9.28s-0.93,19.37 3.11,26.75a82.26,82.26 0 0 1 1.13,8.3c0,2 3.18,7.31 3.18,7.31s-1.92,8 2.79,9.35a4.43,4.43 0 0 0 1,0.19a4.49,4.49 0 0 1 -0.34,2.58a10.2,10.2 0 0 0 -1.68,3.72l0,0a1,1 0 0 0 0.09,0.75c0.53,0.59 2,8.5 2,8.5s2.12,8.89 13.79,6.72c0,0 7.89,-0.46 7.23,-3.23a18.16,18.16 0 0 0 -0.86,-2.68a17.33,17.33 0 0 1 -0.74,-1.73c-0.13,-0.66 -1.79,-2.51 -1.92,-3.76s-1.19,-3.69 -1,-4.48s-1.79,-6.45 -1.93,-7.71a13.07,13.07 0 0 0 -0.75,-2.56l0.42,-0.2s1.06,-5.93 0.14,-8.1s-4.58,-5 -4.58,-5s0.53,-14.56 -0.13,-16.54s0.33,-9.48 0.33,-9.48s2.25,-10.61 2.12,-13a11,11 0 0 1 0.66,-4.35s1.4,-15.61 2.32,-17.59s2,-21.34 2,-21.34l0.62,1.78a68.37,68.37 0 0 0 3.1,7.83c0.51,0.8 2,3.36 3.28,5.5l1.89,3.2s0.86,3.1 0.26,5s6.17,12.18 6.17,12.18a6.09,6.09 0 0 0 -0.66,2.77c0.19,1 -2.06,4.15 -2.06,4.15s-0.86,2.83 -0.33,3.82s-0.86,6.85 -0.86,6.85s-2.26,12.91 -2.79,14.43s0.27,11.92 0.27,11.92s-4.16,10.65 -2.23,14.19c0.08,1.31 0.09,3.31 -0.42,4.12c-0.69,1.08 -0.49,5.07 -0.42,6.17c0,0.19 0,0.29 0,0.29s-2.26,3 0.59,4.22s12.54,2.1 12.54,2.1s9.21,2.64 13.65,3.36s13.73,0.46 14.39,-2.24a7.21,7.21 0 0 0 0.24,-2.58a3.21,3.21 0 0 0 -1.83,-2.56a75.24,75.24 0 0 0 -8.36,-2.77s-4.38,-1 -4.78,-2.9s-6.63,-7.18 -6.63,-7.18s-0.07,-0.37 -0.2,-0.87l0.2,0l-0.3,-0.3c-0.31,-1 -0.81,-2.32 -1.42,-2.07l0,0a1.5,1.5 0 0 1 0.68,-2.06c2.39,-1.31 3.85,-5.46 3.18,-9.94s-0.79,-3.69 0.6,-6.26a12.3,12.3 0 0 0 1,-6.19l3.67,-13.68a20.7,20.7 0 0 0 1.06,-5.2a9.72,9.72 0 0 1 1.06,-4s1.66,-9.49 3.12,-11.66s-1,-9.82 -1,-9.82s-2.25,-11.85 -2.12,-17.26s-5.84,-24.17 -5.84,-24.17a6.28,6.28 0 0 1 -0.92,-4.09c0.12,-1.12 -0.58,-2.94 -1.37,-4.57l-0.25,-0.51a4.43,4.43 0 0 1 1.09,-1c1.64,-1 2.41,-3.63 2.42,-5.48l-22.61,-53.29c0,-0.16 10.47,-21.55 10.44,-21.71c-0.62,-3.51 -6.54,-12.82 -6.54,-12.82l0,0a0.75,0.75 0 0 0 -0.25,-0.29c-1.33,-0.61 -5.83,-3.16 -5.83,-3.16c-3.53,-4.36 -6.84,-5.26 -9,-5.23a6.12,6.12 0 0 0 -2,0.31a4.41,4.41 0 0 0 -0.67,0.27l-0.1,0.87a17.84,17.84 0 0 1 0.47,-6c0.05,-0.17 0.1,-0.35 0.14,-0.52c0.33,0 0.66,0 1,0a16.12,16.12 0 0 0 16.17,-16.07a16.32,16.32 0 0 0 -0.62,-4.45l-0.08,-0.23l0.5,-0.22c2,-0.74 4.51,0.52 6.13,-0.82a4.65,4.65 0 0 0 1.22,-2.11a12.67,12.67 0 0 0 0.89,-3.35c0,-0.2 0,-0.4 0,-0.6a1.09,1.09 0 0 0 0,-0.18a1.7,1.7 0 0 0 0,-0.22c0,-0.09 0,-0.18 0,-0.27s0,0 0,0a3.89,3.89 0 0 0 -0.86,-2c-1.06,-1.24 -2.83,-1.54 -4.17,-2.45a10.09,10.09 0 0 1 -2.67,-3.13a11.64,11.64 0 0 0 -2.59,-3.19a3.81,3.81 0 0 0 -3.89,-0.61a4.39,4.39 0 0 1 -1.28,0.6a2.67,2.67 0 0 1 -1.41,-0.38c-4.6,-2.15 -10,-1.77 -15,-1.13a19.51,19.51 0 0 0 -5.91,1.42a7,7 0 0 0 -4,4.33c-0.41,1.55 -0.1,3.23 -0.59,4.76c-0.34,1 -1,1.92 -1.42,2.93a6,6 0 0 0 -0.38,1.65l0,0s0,0.11 0,0.16c-0.17,2.27 0.72,4.66 1.15,7c0.59,3.19 0.29,6.66 1.66,9.68a5.79,5.79 0 0 0 0.52,1.06c-0.48,1 -1,2.06 -1.5,3.05c-0.74,-0.21 -3,-0.71 -3.08,1.27a10.78,10.78 0 0 1 -1.1,4.64a3.29,3.29 0 0 1 -0.33,0.23a0.64,0.64 0 0 0 -0.37,0.65l0,0l-0.26,0.2a0.64,0.64 0 0 0 -0.32,0.11c-0.14,-0.24 -0.6,-0.26 -2.06,1.48a28.1,28.1 0 0 1 -6.63,5.1s-9.82,6.85 -10.35,10s-3.81,16.91 -2.13,21.48zm43.12,-33.42s0,-0.07 0,-0.11l0.12,0.06l-0.12,0.05zm26.68,224a2.14,2.14 0 0 1 -0.84,0.17l0.84,-0.17z"/>
  <path id="svg_3" fill="#444053" d="m407.73,595.33c-11.53,2.16 -13.63,-6.68 -13.63,-6.68s-1.44,-7.86 -2,-8.45a1,1 0 0 1 -0.09,-0.75l0,0a10.24,10.24 0 0 1 1.66,-3.7c0.72,-0.85 0.13,-4.39 0.13,-4.39l13.36,-3.4a20.05,20.05 0 0 1 1.31,3.93c0.14,1.24 2.1,6.88 1.9,7.66s0.86,3.21 1,4.46s1.77,3.08 1.9,3.73a14,14 0 0 0 0.72,1.73a16.83,16.83 0 0 1 0.85,2.66c0.68,2.74 -7.11,3.2 -7.11,3.2z"/>
  <path id="svg_4" opacity="0.1" d="m407.73,595.33c-11.53,2.16 -13.63,-6.68 -13.63,-6.68s-1.44,-7.86 -2,-8.45a1,1 0 0 1 -0.09,-0.75l2.77,8s2.3,4.79 10.81,4.06c4.85,-0.4 7.23,-1.3 8.39,-2a16.83,16.83 0 0 1 0.85,2.66c0.69,2.7 -7.1,3.16 -7.1,3.16z"/>
  <path id="svg_5" opacity="0.1" d="m398.75,582.88s2.89,0.07 3.08,-2.29l-3.08,2.29z"/>
  <path id="svg_6" fill="#5b5a5f" d="m448.87,505.45c-1.44,2.16 -3.08,11.59 -3.08,11.59a9.92,9.92 0 0 0 -1,4a20.26,20.26 0 0 1 -1,5.18l-3.79,13.56a12.27,12.27 0 0 1 -1,6.15c-1.37,2.56 -1.24,1.77 -0.59,6.23s-0.78,8.58 -3.14,9.89s1.05,4.39 1.05,4.39s-15.07,4.06 -18.22,1.57s1.64,-14.8 1.64,-14.8s-0.78,-10.35 -0.26,-11.86s2.75,-14.35 2.75,-14.35s1.38,-5.83 0.85,-6.81s0.33,-3.8 0.33,-3.8s2.23,-3.15 2,-4.13a6.16,6.16 0 0 1 0.66,-2.75s-6.68,-10.22 -6.1,-12.12s-0.26,-5 -0.26,-5s-0.84,-1.45 -1.86,-3.18c-1.24,-2.13 -2.74,-4.67 -3.25,-5.47a69.83,69.83 0 0 1 -3.05,-7.78l-0.62,-1.78s-1,19.26 -2,21.22s-2.29,17.5 -2.29,17.5a10.88,10.88 0 0 0 -0.66,4.32c0.13,2.42 -2.1,13 -2.1,13s-1,7.47 -0.32,9.44s0.13,16.44 0.13,16.44s3.6,2.82 4.52,5s-0.13,8.06 -0.13,8.06s-10.48,5.24 -15.14,3.86s-2.75,-9.3 -2.75,-9.3s-3.14,-5.24 -3.14,-7.27a82.19,82.19 0 0 0 -1.12,-8.26c-4,-7.34 -2.42,-25.15 -3.07,-26.6s1.37,-6.81 3,-9.23s1,-9 0,-10.88s1,-8.45 1,-8.45s-1.9,-12.71 -1.83,-14.67s-1.64,-7.8 -1.64,-7.8s-1.7,-3 -1.31,-3.93s-1.31,-3.28 -0.85,-4.32s-0.4,-4.26 -1.25,-6.16a39.49,39.49 0 0 1 -1.4,-6c-0.4,-2.26 -0.69,-4.25 -0.69,-4.25l10.81,-8.71l27,-7.08l10.24,-3.33l9.89,15.59s1,1.63 1.93,3.51c0.78,1.62 1.47,3.43 1.35,4.55a6.27,6.27 0 0 0 0.92,4.06s5.89,18.67 5.76,24s2.1,17.17 2.1,17.17s2.42,7.63 0.98,9.79z"/>
  <path id="svg_7" opacity="0.1" d="m388.21,515.21s11.53,-4.91 14.93,-1.44s-14.93,1.44 -14.93,1.44z"/>
  <path id="svg_8" opacity="0.1" d="m394.69,517.17s-11.69,6.61 -7.69,7.67s7.69,-7.67 7.69,-7.67z"/>
  <path id="svg_9" opacity="0.1" d="m429.54,511.48s-5,0.32 -3.08,1.31s3.08,-1.31 3.08,-1.31z"/>
  <path id="svg_10" opacity="0.1" d="m435.77,512.98c-0.07,0.33 -14.48,5 -11.66,7.08s11.66,-7.08 11.66,-7.08z"/>
  <path id="svg_11" opacity="0.1" d="m389.91,553.07c2.16,-0.32 14.22,-5.89 9.5,-1.89a9.4,9.4 0 0 1 -9.5,1.89z"/>
  <path id="svg_12" opacity="0.1" d="m395.87,557.46s1.05,4.07 5.05,3.54s-5.05,-3.54 -5.05,-3.54z"/>
  <path id="svg_13" opacity="0.1" d="m392.53,565.72c0.72,-0.2 9.3,-4.13 9.5,-2.29s-8.19,5 -8.84,4.06a3.52,3.52 0 0 1 -0.66,-1.77z"/>
  <path id="svg_14" opacity="0.1" d="m420.31,561c1,-0.06 10.87,-3.21 12.84,-0.39l-12.84,0.39z"/>
  <path id="svg_15" opacity="0.1" d="m429.22,562.84s1.7,-1.51 3.4,-0.72s-3.4,0.72 -3.4,0.72z"/>
  <path id="svg_16" opacity="0.1" d="m407.47,579.08a2.92,2.92 0 0 0 2.22,2.3l-2.22,-2.3z"/>
  <path id="svg_17" fill="#444053" d="m457.45,585.24c-0.65,2.69 -9.83,2.95 -14.21,2.23s-13.5,-3.34 -13.5,-3.34s-9.56,-0.92 -12.38,-2.1s-0.59,-4.19 -0.59,-4.19s0,-0.1 0,-0.28c-0.07,-1.1 -0.26,-5.07 0.41,-6.14c0.79,-1.25 0.33,-5.31 0.33,-5.31s13.56,2.62 13.82,1.38s2.36,-3 3.34,-3.41s1.71,3.28 1.71,3.28s6.16,5.24 6.55,7.14s4.71,2.88 4.71,2.88a73.26,73.26 0 0 1 8.26,2.75a3.18,3.18 0 0 1 1.81,2.54a7.14,7.14 0 0 1 -0.26,2.57z"/>
  <path id="svg_18" opacity="0.1" d="m457.45,585.24c-0.65,2.69 -9.83,2.95 -14.21,2.23s-13.5,-3.34 -13.5,-3.34s-9.56,-0.92 -12.38,-2.1s-0.59,-4.19 -0.59,-4.19s0,-0.1 0,-0.28l13.71,3s6.75,2.88 11.07,2.88c3.78,0 12.23,1.55 16.16,-0.8a7.14,7.14 0 0 1 -0.26,2.6z"/>
  <path id="svg_19" opacity="0.1" d="m438.91,574.89s-0.65,4.32 -3.27,5.77l3.27,-5.77z"/>
  <path id="svg_20" fill="#a1616a" d="m480.9,415.65c-3.9,1.48 -12.9,1.64 -16.9,1.64c-1.22,0 -2,0 -2,0l-2.57,-5.24l2.57,-4.37s2.36,-0.65 5.5,-1.22c4.63,-0.83 11,-1.48 14,0.39c5.04,3.13 4.5,6.93 -0.6,8.8z"/>
  <path id="svg_21" fill="#119195" d="m421.33,352.94l1.14,-1.31s5.85,9.26 6.46,12.75s1.4,7.51 1.4,7.51s1.48,4.54 2.45,6.55a22.15,22.15 0 0 1 1.92,4.81c0.08,0.87 -0.35,2.79 1.48,4s2.27,4.54 2.27,4.54s6.64,6.46 10.14,6.64s13.53,1.92 13.19,3.66s4.19,2.8 6,3.24s-11.78,5.69 -3.78,12.45c0,0 -5.07,1 -5.59,2.27s-5.85,-0.7 -5.85,-0.7s-1.14,-2.71 -5.07,-2.88s-5.94,-1.92 -5.94,-2.18s-3.93,-2.45 -6.11,-3.06s-5.07,-0.87 -5.16,-1.49s-13.1,-56.77 -13.1,-56.77l4.15,-0.03z"/>
  <path id="svg_22" opacity="0.05" d="m421.33,353.16l1.14,-1.31s5.85,9.26 6.46,12.76s1.4,7.51 1.4,7.51s1.48,4.54 2.45,6.55a22.32,22.32 0 0 1 1.92,4.8c0.08,0.88 -0.35,2.8 1.48,4s2.27,4.54 2.27,4.54s6.64,6.47 10.14,6.64s13.53,1.92 13.19,3.67s4.19,2.8 6,3.23s-11.78,5.7 -3.78,12.43c0,0 -5.07,1 -5.59,2.27s-5.85,-0.7 -5.85,-0.7s-1.14,-2.71 -5.07,-2.88s-5.94,-1.92 -5.94,-2.19s-3.93,-2.44 -6.11,-3.05s-5.07,-0.88 -5.16,-1.49s-13.1,-56.78 -13.1,-56.78l4.15,0z"/>
  <path id="svg_23" stroke-miterlimit="10" stroke="#ffffff" fill="none" d="m555,590.56c66,0 119.5,10.75 119.5,24s-53.5,24 -119.5,24s-119.5,-10.74 -119.5,-24"/>
  <rect transform="rotate(9.4891 514.347 162.564)" id="svg_24" fill="#5b5a5f" height="127.07" width="17.09" y="99.02924" x="505.80231"/>
  <polygon id="svg_25" fill="#d0d2d5" points="550.34 598.75 554.08 625.45 557.28 597.69 550.34 598.75"/>
  <polygon id="svg_26" fill="#3f3d56" points="430.2 583.8 430.2 600.36 433.94 614.77 436.61 614.77 439.82 599.29 441.42 580.6 430.2 583.8"/>
  <path id="svg_27" fill="#d0d2d5" d="m422.59,519.2l8,1.6s-9.07,25.09 -2.67,30.43l-10.13,0s-3.74,-19.22 4.8,-32.03z"/>
  <path id="svg_28" opacity="0.1" d="m422.59,519.2l8,1.6s-9.07,25.09 -2.67,30.43l-10.13,0s-3.74,-19.22 4.8,-32.03z"/>
  <path id="svg_29" fill="#d0d2d5" d="m476.12,217.53l-25.63,162.31s-37.9,173 -23.49,207.17l18.16,0l54.46,-332.1l-23.5,-37.38z"/>
  <path id="svg_30" fill="#d0d2d5" d="m541.12,197.37l19.65,163.14s14.31,207.83 -1.36,241.44l-15.48,0l-27.66,-368.09l24.85,-36.49z"/>
  <path id="svg_31" fill="#5b5a5f" d="m473.73,158.23a21,21 0 0 1 20.71,-15c15.81,0.4 40.25,3.28 53,16.34c19.76,20.29 -13.35,88.63 -13.35,88.63s-31,57.13 -59.26,-15.48c-0.04,0.06 -11.76,-38.82 -1.1,-74.49z"/>
  <path id="svg_33" fill="#d0d2d5" d="m484.6,172.11a15,15 0 0 1 14.75,-10.66c11.25,0.29 28.65,2.34 37.7,11.64c14.07,14.44 -9.5,63.1 -9.5,63.1s-22,40.67 -42.2,-11c0,-0.03 -8.35,-27.68 -0.75,-53.08z"/>
  <path id="svg_34" fill="url(#f2f9dedb-0f43-435f-9543-735f3db0009a)" d="m539.33,587.9c0.17,2.58 0.57,5.29 2.2,7.31c2.7,3.34 7.61,3.6 11.81,4.65a52,52 0 0 1 9.34,3.68l9.09,4.3a23.69,23.69 0 0 0 -6.82,1.42c-1.17,0.43 -2.45,1.14 -2.62,2.36a2.52,2.52 0 0 0 1.51,2.42a7.12,7.12 0 0 0 3,0.53a100.83,100.83 0 0 0 16.2,-0.85l0.64,-0.09q4.14,2.05 8.24,4.19c1.14,0.6 2.51,0 3.47,-0.84a18.4,18.4 0 0 0 3.08,-3.52c0.16,0.28 0.32,0.55 0.45,0.82c0.88,1.69 1.71,3.9 0.45,5.34c-1,1.12 -2.89,1.31 -3.46,2.67a2.41,2.41 0 0 0 0.93,2.71a6.16,6.16 0 0 0 2.91,1a25.83,25.83 0 0 0 7.45,-0.06a6,6 0 0 0 3.6,-1.53a6.6,6.6 0 0 0 1.28,-4l1.71,-19.43a5.83,5.83 0 0 0 -0.2,-2.76c-0.68,-1.65 -2.65,-2.34 -4.43,-2.63l-0.19,0c1.48,0 3,-0.07 4.6,-0.07a11,11 0 0 0 4.12,-0.52c2.54,-1 3.91,-3.67 5,-6.13c2,-4.32 4.3,-9 4,-13.8l-0.78,-0.35c-0.07,-5.11 -2.21,-9.88 -3,-14.87a8.28,8.28 0 0 0 1.33,-4.5a16.64,16.64 0 0 0 -1.13,-5.12c-3.17,-9.42 -6.34,-18.87 -10.58,-27.87a96.41,96.41 0 0 0 -10,-17q-1.53,-2 -3.18,-4c-0.8,-0.92 -2.59,-2.22 -2.92,-3.39s0.37,-2.31 0,-3.51a5.94,5.94 0 0 0 -0.36,-0.91c2.34,-3.1 1.68,-7.58 0.86,-11.44l-1,-4.81a13,13 0 0 0 -1.24,-3.81a11.13,11.13 0 0 0 -2.39,-2.71c-4.92,-4.44 -11,-7.39 -16.53,-11.07c-5.85,-3.89 -11.08,-8.62 -16.32,-13.29c-1.6,-1.42 -3.61,-2.95 -5.68,-2.35s-2.93,2.84 -3,4.88a10.06,10.06 0 0 0 3.25,7.54c3.62,3.31 9.09,3.58 13.4,5.92a31.35,31.35 0 0 1 4.21,2.93l12.52,9.83a4.35,4.35 0 0 1 1.95,2.54a4.09,4.09 0 0 1 -0.3,1.88c-0.47,1.44 -1.27,3.25 -1.86,5.08l-1,-0.72a39.2,39.2 0 0 0 -6.63,-4a32.91,32.91 0 0 0 -9.71,-2.33c-7.39,-0.83 -14,0.31 -18.52,6.48a13.7,13.7 0 0 1 -3.51,3.61a13,13 0 0 0 -2.85,1.81c-2.32,2.57 -1,6.83 1.18,9a14,14 0 0 0 6.58,3.43a13.52,13.52 0 0 0 16.42,7.36a20.1,20.1 0 0 1 0.09,3.88a4.47,4.47 0 0 0 1.41,3.59a5.88,5.88 0 0 0 1.72,0.8a26.39,26.39 0 0 1 6.23,3.25a32,32 0 0 0 -5.52,8.25a13.42,13.42 0 0 0 1,12.48l0.06,0.08a4.14,4.14 0 0 1 -0.91,1.68a3,3 0 0 1 -4.13,-0.42a15.72,15.72 0 0 1 -2.16,-3.33a13.94,13.94 0 0 0 -9,-6.36a7.23,7.23 0 0 0 -4.15,0.17a3.66,3.66 0 0 0 -2.41,3.12c0,1.51 1.1,2.76 2.18,3.83a63.59,63.59 0 0 0 11,9.1a35.41,35.41 0 0 0 3.37,1.84q-3,-0.63 -5.92,-1.23a26.77,26.77 0 0 0 -8.35,-0.73a9.32,9.32 0 0 0 -7,4.08a9,9 0 0 0 -0.65,6.8a22.86,22.86 0 0 0 3.07,6.3a44.85,44.85 0 0 0 7.67,9.6c-2.5,0.75 -5,1.57 -7.44,2.47s-5,2 -6.12,4.24a9.72,9.72 0 0 0 -0.61,5.1zm36.81,-34l0.09,0a3.13,3.13 0 0 0 1.31,-1.11a18.14,18.14 0 0 0 3.16,-6.84a7.71,7.71 0 0 0 1.7,-0.43a3.8,3.8 0 0 0 -1.18,2.76l5.64,2.76a2.1,2.1 0 0 1 1,0.79a2,2 0 0 1 0.11,1.18c-0.16,1.29 -0.41,2.58 -0.57,3.86c-1.69,-0.5 -3.35,-0.9 -4.84,-1.3c-2.12,-0.58 -4.27,-1.12 -6.42,-1.66l0,-0.01z"/>
  <path id="svg_35" fill="#fabdbd" d="m577.19,500.78a10.81,10.81 0 0 0 8.4,-1.35a5.15,5.15 0 0 1 1.63,-0.76a3.32,3.32 0 0 1 2.78,1.11c2.4,2.39 2.68,6.33 1.44,9.48s-3.73,5.63 -6.34,7.78a57.55,57.55 0 0 1 -6.67,4.74a12.36,12.36 0 0 0 -6.84,-6.65c-2.74,-1.06 -4.74,-3.9 -6.31,-6.38c-1.17,-1.84 -2.21,-1.76 -1.16,-3.66a27.68,27.68 0 0 1 4.16,-5a16.25,16.25 0 0 0 2.24,-3c0.7,-1.26 0.54,-2.08 1.62,-1.08c0.71,0.66 1,2.09 1.82,2.86a8,8 0 0 0 3.23,1.91z"/>
  <path id="svg_36" fill="#fabdbd" d="m585.78,481.28a4.23,4.23 0 0 0 0.29,-1.85a4.34,4.34 0 0 0 -1.91,-2.51l-12.23,-9.7a30,30 0 0 0 -4.1,-2.89c-4.22,-2.31 -9.55,-2.58 -13.09,-5.84a10.05,10.05 0 0 1 -3.18,-7.45c0,-2 1,-4.26 2.89,-4.82s4,0.92 5.56,2.33c5.11,4.6 10.21,9.27 15.92,13.11c5.4,3.64 11.35,6.54 16.16,10.93a10.88,10.88 0 0 1 2.23,2.61a13.4,13.4 0 0 1 1.21,3.77l1,4.74c0.84,4 1.52,8.65 -1.17,11.72a4.27,4.27 0 0 1 -3.26,1.61a6.42,6.42 0 0 1 -2.51,-0.86c-2,-1 -5.62,-2 -6.23,-4.5c-0.78,-3.13 1.47,-7.5 2.42,-10.4z"/>
  <path id="svg_37" fill="#fabdbd" d="m566.27,543.78a16,16 0 0 1 -2.11,-3.28a13.61,13.61 0 0 0 -8.78,-6.28a7.06,7.06 0 0 0 -4,0.16a3.61,3.61 0 0 0 -2.35,3.09c0,1.48 1.07,2.72 2.12,3.77a62,62 0 0 0 10.76,9a28.38,28.38 0 0 0 13.09,4.54a3.3,3.3 0 0 0 1.4,-0.13a3.13,3.13 0 0 0 1.28,-1.09c2.48,-3.18 3.34,-7.31 4,-11.28c-0.24,1.43 -8.29,-1.91 -9.2,-1.48c-1.34,0.63 -1.21,2.51 -2.18,3.41a2.89,2.89 0 0 1 -4.03,-0.43z"/>
  <path id="svg_38" fill="#fabdbd" d="m624.92,575.2a2.65,2.65 0 0 1 -0.28,1.45c-0.55,0.86 -1.79,0.87 -2.8,0.72a51.18,51.18 0 0 1 -6.89,-1.66l-20.53,-5.93a1.87,1.87 0 0 1 -0.88,-0.43a1.82,1.82 0 0 1 -0.41,-0.9a24.15,24.15 0 0 1 -0.45,-9a2.4,2.4 0 0 1 0.41,-1.21a2.42,2.42 0 0 1 1.7,-0.64a87,87 0 0 1 9.68,-0.44a48.85,48.85 0 0 0 6.29,-0.14c2.7,-0.32 5.81,-1.87 8.52,-1.63c2.35,0.2 2.25,2 2.49,4c0.67,5.31 3.1,10.39 3.15,15.81z"/>
  <path id="svg_39" fill="#5b5a5f" d="m559.37,550.83a25.61,25.61 0 0 0 -8.16,-0.73a9.08,9.08 0 0 0 -6.83,4a8.89,8.89 0 0 0 -0.64,6.72a23.25,23.25 0 0 0 3,6.21a40.83,40.83 0 0 0 8.77,10.56c1.75,1.39 3.68,2.54 5.36,4c3.58,3.13 5.8,7.5 7.93,11.75c2,4 4,8.08 4.86,12.48a1.25,1.25 0 0 0 0.43,0.89a1.19,1.19 0 0 0 0.89,0.06l9.85,-1.82a1.54,1.54 0 0 0 1.38,-2.34a68.92,68.92 0 0 0 -11.75,-25.41a22.55,22.55 0 0 0 19.82,5.74a7.74,7.74 0 0 0 3.76,-1.63c2.2,-2 2.1,-5.41 1.61,-8.32a61.07,61.07 0 0 0 -1.82,-7.67c-1.85,-6 -9.83,-7.62 -15.24,-9.08q-11.52,-3.05 -23.22,-5.41z"/>
  <path id="svg_40" opacity="0.1" d="m566.66,572.09a10.83,10.83 0 0 1 3.74,2.48c-1.77,-2 -6.83,-3 -9.31,-3.93c-3.07,-1.14 -6.42,-2.31 -9,-4.34a107.88,107.88 0 0 1 14.57,5.79z"/>
  <path id="svg_41" fill="#119195" d="m598.56,614.24c0.85,1.68 1.66,3.85 0.44,5.28c-0.94,1.1 -2.82,1.29 -3.38,2.63a2.39,2.39 0 0 0 0.91,2.68a5.88,5.88 0 0 0 2.84,1a25.37,25.37 0 0 0 7.28,-0.06a5.84,5.84 0 0 0 3.51,-1.51a6.58,6.58 0 0 0 1.25,-4l1.67,-19.18a6,6 0 0 0 -0.19,-2.73c-0.67,-1.63 -2.59,-2.3 -4.33,-2.59a23.24,23.24 0 0 0 -5.89,-0.24a6.22,6.22 0 0 0 -3.67,1.26a7.09,7.09 0 0 0 -1.73,4c-0.45,2.28 -1.71,5.44 -1.44,7.75c0.17,1.91 1.89,4.03 2.73,5.71z"/>
  <path id="svg_42" fill="#119195" d="m576.48,608.04a23.35,23.35 0 0 0 -11.11,1.25c-1.14,0.42 -2.39,1.13 -2.56,2.33a2.49,2.49 0 0 0 1.48,2.39a7,7 0 0 0 2.94,0.53a99.64,99.64 0 0 0 15.82,-0.84a8.51,8.51 0 0 0 3.85,-1.21a3,3 0 0 0 1.21,-3.56c-0.63,-1.32 -2.35,-1.73 -3.18,-2.92c-0.6,-0.86 -0.75,-2.13 -1.69,-2.58a2.89,2.89 0 0 0 -2.15,0.16c-1,0.35 -3.4,0.7 -4.09,1.53a11.49,11.49 0 0 0 -0.52,2.92z"/>
  <circle id="svg_43" fill="#fabdbd" r="13.13" cy="498.14" cx="562.32"/>
  <path id="svg_44" fill="#119195" d="m593.46,492.36c-2.11,-1.55 -4.77,-2.08 -7.34,-2.56a3.84,3.84 0 0 0 -2.64,0.13a3.9,3.9 0 0 0 -1.27,1.56a14.52,14.52 0 0 0 -1.74,4.15a4.82,4.82 0 0 0 1,4.23c0.78,0.8 1.9,1.2 2.7,2a5,5 0 0 1 1.18,4.32a12.93,12.93 0 0 1 -1.75,4.27a72.33,72.33 0 0 1 -6.58,9.68c-2.55,3.17 -5.41,6.22 -6.91,10a13.38,13.38 0 0 0 1,12.32c2.43,3.54 7.27,5.44 11.28,3.91a3.72,3.72 0 0 0 -1.14,2.72l5.5,2.73a2.08,2.08 0 0 1 1,0.78a2,2 0 0 1 0.1,1.16a36.47,36.47 0 0 0 -0.67,6.73c0.15,2.25 1.18,4.62 3.22,5.6c1.87,0.9 4.09,0.42 6.13,0a76.53,76.53 0 0 1 14.47,-1.52c2.42,0 4.92,0.06 7.15,-0.88a8.5,8.5 0 0 0 5.07,-7.69a16.4,16.4 0 0 0 -1.11,-5.06c-3.09,-9.3 -6.19,-18.62 -10.33,-27.51a96.65,96.65 0 0 0 -9.81,-16.8c-1,-1.33 -2,-2.64 -3.11,-3.91c-0.78,-0.91 -2.53,-2.19 -2.85,-3.35s0.36,-2.28 0,-3.46a7,7 0 0 0 -2.55,-3.55z"/>
  <path id="svg_45" fill="#5b5a5f" d="m625.68,575.47c-5.76,-2.66 -11.52,-5.32 -17.51,-7.39c-4.41,-1.52 -9.33,-2.71 -13.66,-1c-1.3,0.52 -2.48,1.27 -3.73,1.88c-4.19,2 -9,2.34 -13.63,2.85a128,128 0 0 0 -30.15,7.17c-2.33,0.86 -4.84,2 -6,4.18a9.57,9.57 0 0 0 -0.64,5c0.17,2.55 0.56,5.23 2.15,7.22c2.64,3.3 7.43,3.55 11.53,4.59a50.53,50.53 0 0 1 9.13,3.64c9.58,4.57 19.17,9.14 28.57,14.09c1.1,0.59 2.44,0 3.38,-0.83a20.79,20.79 0 0 0 5.9,-9.72a41.94,41.94 0 0 0 1.5,-11.38c3.68,0 6.67,-0.16 10.35,-0.16a10.7,10.7 0 0 0 4,-0.51c2.47,-1 3.81,-3.63 4.92,-6.05c1.98,-4.27 4.21,-8.9 3.89,-13.58z"/>
  <path id="svg_46" opacity="0.1" d="m558.8,589.14c2.59,-1.26 5.59,-1.29 8.48,-1.27a28.06,28.06 0 0 1 5.26,0.4a41.53,41.53 0 0 1 7.69,2.89a48.82,48.82 0 0 0 19.38,3.8"/>
  <path id="svg_47" fill="#3f3d56" d="m543.86,500a14.32,14.32 0 0 0 7.08,3.55c2.6,0.6 5.28,0.83 7.9,1.41c3.22,0.71 6.74,2.41 7.47,5.63a18.7,18.7 0 0 1 0.1,3.89a4.41,4.41 0 0 0 1.35,3.51a6,6 0 0 0 1.68,0.79a28,28 0 0 1 18,25.84a12.73,12.73 0 0 0 6.18,-9.12c0,3.48 3,7 1.3,10.11a16,16 0 0 0 3.85,-23.25c-1.32,-1.68 -3,-3.08 -4.38,-4.69a21.74,21.74 0 0 1 -5.18,-16.6c0.29,-2.53 1,-5.09 0.47,-7.58c-0.77,-3.45 -3.8,-5.85 -6.68,-7.9a38.39,38.39 0 0 0 -6.48,-3.94a31.86,31.86 0 0 0 -9.49,-2.31c-7.21,-0.81 -13.62,0.31 -18.09,6.4a13.17,13.17 0 0 1 -3.42,3.56a12.89,12.89 0 0 0 -2.79,1.79c-2.29,2.54 -0.99,6.74 1.13,8.91z"/>
  <path id="svg_48" fill="#a1616a" d="m409,353.59c-0.41,-0.17 -28.91,-11.94 -25,-14.28c2.33,-1.39 5.2,-7.27 7.16,-11.88c1.37,-3.21 2.3,-5.81 2.3,-5.81s22.88,-4.06 14.69,10a26.09,26.09 0 0 0 -2.89,6.91c-2.36,9.5 3.51,14.88 3.74,15.06z"/>
  <path id="svg_49" opacity="0.1" d="m408.12,331.58a26.09,26.09 0 0 0 -2.89,6.91a16,16 0 0 1 -13.5,-9.5a14,14 0 0 1 -0.6,-1.56c1.37,-3.21 2.3,-5.81 2.3,-5.81s22.88,-4.06 14.69,9.96z"/>
  <path id="svg_50" fill="#a1616a" d="m422.34,322.02a16,16 0 0 1 -30.61,6.45a15.79,15.79 0 0 1 -1.36,-6.45a16,16 0 0 1 31.35,-4.43a16.18,16.18 0 0 1 0.62,4.43z"/>
  <path id="svg_51" opacity="0.1" d="m437.76,445.87a9.73,9.73 0 0 0 -2.32,4.42s-7.86,5.37 -7.34,2s-4.1,-17.2 -4.1,-17.2l0.52,18.74s-25.15,-1.18 -27,-3s-12.52,-5.39 -12.52,-5.39s-3.29,2.64 -6.32,4.64c-0.4,-2.26 -0.69,-4.25 -0.69,-4.25l10.81,-8.71l27,-7.08l10.14,-3.26l9.89,15.59s1.02,1.62 1.93,3.5z"/>
  <path id="svg_52" fill="#d0d2d5" d="m438.58,444.39c-2.09,1.31 -2.88,4.85 -2.88,4.85s-7.86,5.37 -7.34,2s-4.06,-17.16 -4.06,-17.16l0.53,18.74s-25.16,-1.18 -27,-3s-12.58,-5.37 -12.58,-5.37s-9.3,7.47 -11,6.81s3,-13.36 3,-13.36l4.84,-74.42s-1.31,-22.14 0.66,-22.93a2.6,2.6 0 0 0 0.82,-0.52c1.3,-1.16 1.69,-3.52 1.8,-5.51c0.13,-2.35 3.27,-1.18 3.27,-1.18l-1.83,2.36l16.24,9.87l0.14,0.09a19.49,19.49 0 0 1 2,-0.89c1.44,-0.55 3.35,-1.07 4.6,-0.55a4.51,4.51 0 0 1 1.72,1.55a19.17,19.17 0 0 1 2.21,4.48l5.9,9.95s3,13.24 3,13.76s0.92,12.58 2,13.89s2.1,7.86 1.71,9.83s0.65,9.3 0.65,9.3c4.33,3.54 6.55,15.59 6.55,15.59s6.82,13.5 7.34,15.07s-0.19,5.44 -2.29,6.75z"/>
  <path id="svg_53" opacity="0.1" d="m403.07,346.04c-1.6,2.36 -6.2,5.67 -6.2,5.67l-13.28,-11.21c1.3,-1.16 1.69,-3.53 1.8,-5.51c0.13,-2.36 3.27,-1.18 3.27,-1.18l-0.38,0.49a2.12,2.12 0 0 0 0.57,3.1l14.22,8.64z"/>
  <path id="svg_54" fill="#d0d2d5" d="m403.07,345.51c-1.6,2.36 -6.2,5.68 -6.2,5.68l-13.28,-11.22c1.3,-1.16 1.69,-3.52 1.8,-5.51c0.13,-2.35 3.27,-1.18 3.27,-1.18l-0.38,0.49a2.12,2.12 0 0 0 0.57,3.1l14.22,8.64z"/>
  <path id="svg_55" opacity="0.1" d="m409.21,347.28c-1.72,2.05 -4.15,4.38 -4,3.21s-1.45,-3.74 -2.44,-4.89a7.3,7.3 0 0 1 4.76,0.13a4.51,4.51 0 0 1 1.68,1.55z"/>
  <path id="svg_56" fill="#d0d2d5" d="m409.47,346.49c-1.72,2.06 -4.15,4.38 -4,3.22s-1.29,-3.06 -2.29,-4.21c1.44,-0.55 3.35,-1.07 4.6,-0.55a4.4,4.4 0 0 1 1.69,1.54z"/>
  <path id="svg_57" opacity="0.1" d="m383.6,340.62s0.17,-1.57 -2.1,1.14a27.69,27.69 0 0 1 -6.5,5.02s-9.69,6.82 -10.22,10s-3.67,16.77 -2,21.31s14.33,26.3 14.33,26.3s-3.32,3.93 -2.54,8.56s1.75,11 1.31,12.4s0.53,4.89 -1,6.11s-3.05,3.32 1.58,6.12c0,0 0.87,2.36 0.08,2.88s11.62,5.94 16.51,3.06s13.72,-25.94 13.89,-31.1s-2.71,-22.18 -4.28,-26.2s-6.29,-19.66 -8.3,-23.15s-10.76,-22.45 -10.76,-22.45z"/>
  <path id="svg_58" fill="#119195" d="m383.07,340.62s0.18,-1.57 -2.09,1.14a27.69,27.69 0 0 1 -6.55,5.06s-9.7,6.82 -10.22,10s-3.67,16.77 -2,21.31s14.32,26.3 14.32,26.3s-3.32,3.93 -2.53,8.56s1.75,11 1.31,12.4s0.52,4.89 -1,6.11s-3.06,3.32 1.57,6.12c0,0 0.88,2.36 0.09,2.88s11.62,5.94 16.51,3.06s13.71,-25.94 13.89,-31.1s-2.71,-22.18 -4.28,-26.2s-6.29,-19.66 -8.3,-23.15s-10.72,-22.49 -10.72,-22.49z"/>
  <path id="svg_59" opacity="0.1" d="m379.58,355.47s7.51,8.3 7.25,13.8c0,0 0.09,-8.91 -7.25,-13.8z"/>
  <path id="svg_60" opacity="0.1" d="m404.93,343.59s4.87,-3 11,4.63c0,0 4.45,2.53 5.76,3.15s2.8,16.85 2.8,16.85s2.88,7 2.09,11s2.28,17.82 2.28,17.82s5.06,24.81 4.89,25.5s-5.16,-7.77 -5.07,-12s-4.19,-17.3 -4.8,-18.08s-4.81,-23.24 -4.81,-23.24s-3.4,-9.52 -5.59,-12.66s-4.89,-9.09 -6,-10.14a11.55,11.55 0 0 0 -2.7,-1.74l0.15,-1.09z"/>
  <path id="svg_61" fill="#119195" d="m404.87,343.59s5.46,-3 11.57,4.63c0,0 4.46,2.53 5.77,3.15s2.79,16.85 2.79,16.85s2.88,7 2.1,11s2.27,17.82 2.27,17.82s5.07,24.81 4.89,25.5s-5.15,-7.77 -5.07,-12s-4.19,-17.3 -4.8,-18.08s-4.8,-23.24 -4.8,-23.24s-3.41,-9.44 -5.59,-12.61s-4.9,-9.09 -6,-10.14a10.93,10.93 0 0 0 -3.23,-1.74l0.1,-1.14z"/>
  <path id="svg_62" fill="#a1616a" d="m428.85,398.18s10.39,-6.81 15.41,-3.45s13.24,8.13 5.16,11.58s-19.26,2.79 -19.26,2.79l-1.31,-10.92z"/>
  <path id="svg_63" opacity="0.1" d="m421.62,463.91c-1.55,3.33 -2.83,20 -3.7,25.32c-1.24,-2.13 -2.74,-4.67 -3.25,-5.47a69.83,69.83 0 0 1 -3.05,-7.78c1,-2.4 3.71,-9.28 3.71,-11.8c0,-3.08 5,-6.95 5,-6.95a5.78,5.78 0 0 1 1.29,6.68z"/>
  <path id="svg_64" opacity="0.1" d="m421.72,317.59a4.74,4.74 0 0 1 -0.78,0.32c-1.23,0.33 -2.43,-0.5 -3.52,-1.16s-2.6,-1.15 -3.55,-0.29c-1.23,1.12 -0.34,3.51 -1.61,4.59c-0.8,0.69 -2.07,0.45 -3,1s-1.16,1.8 -1.39,2.86s-0.67,2.28 -1.72,2.59s-2,-0.37 -3,-0.34c-0.21,0 -0.46,0 -0.6,-0.12a0.64,0.64 0 0 1 -0.1,-0.47a10.24,10.24 0 0 0 -0.34,-3.79a3.63,3.63 0 0 0 -2.66,-2.5c-1.84,-0.28 -3.39,1.33 -4.47,2.85a46.4,46.4 0 0 0 -3.09,5c-0.05,0.09 -0.1,0.21 -0.16,0.35a15.79,15.79 0 0 1 -1.36,-6.45a16,16 0 0 1 31.35,-4.43l0,-0.01z"/>
  <path id="svg_65" fill="#3f3d56" d="m395,322.88c1.08,-1.52 2.63,-3.13 4.47,-2.85a3.64,3.64 0 0 1 2.66,2.49a10.07,10.07 0 0 1 0.33,3.79a0.7,0.7 0 0 0 0.11,0.48c0.14,0.16 0.39,0.13 0.6,0.12c1,0 2.05,0.63 3,0.34s1.5,-1.53 1.72,-2.59s0.47,-2.28 1.39,-2.86s2.17,-0.33 3,-1c1.27,-1.08 0.38,-3.48 1.61,-4.59c0.95,-0.86 2.46,-0.37 3.55,0.29s2.29,1.49 3.52,1.16a10.39,10.39 0 0 0 1.19,-0.51c1.95,-0.74 4.47,0.52 6.06,-0.81a4.71,4.71 0 0 0 1.21,-2.1a12.9,12.9 0 0 0 0.88,-3.33a4.48,4.48 0 0 0 -0.88,-3.26c-1,-1.22 -2.8,-1.53 -4.13,-2.43a10.14,10.14 0 0 1 -2.63,-3.11a11.49,11.49 0 0 0 -2.56,-3.18a3.76,3.76 0 0 0 -3.85,-0.6a4,4 0 0 1 -1.26,0.59a2.52,2.52 0 0 1 -1.39,-0.38c-4.54,-2.14 -9.83,-1.76 -14.81,-1.12a19.06,19.06 0 0 0 -5.84,1.41a7,7 0 0 0 -3.94,4.31c-0.4,1.54 -0.09,3.21 -0.58,4.73c-0.33,1 -1,1.91 -1.4,2.92c-1.06,2.76 0.21,5.8 0.75,8.71c0.59,3.18 0.29,6.62 1.64,9.63c0.27,0.59 0.56,1.62 1.23,1.23c0.49,-0.29 1,-2 1.25,-2.49a48.14,48.14 0 0 1 3.1,-4.99z"/>
  <path id="svg_66" opacity="0.1" d="m366.22,374.08l-2.36,6.7s5.59,20.79 8.21,25.16s6.46,10 6.46,10a24,24 0 0 0 14,1.74c7.51,-1.48 29.43,-5.41 29.43,-5.41a2.92,2.92 0 0 0 2.8,-1.05c1,-1.4 5.94,-2.1 5.94,-2.1s5.76,-8.38 -1.31,-11.88c0,0 -0.87,1.93 -4.63,0.61s-4.89,1.05 -4.89,1.05s-6.12,1.23 -9.52,0.79s-11.88,-0.61 -12.76,-1.31a1.11,1.11 0 0 0 -1.57,0.09a9.53,9.53 0 0 1 -2.79,-1.58c-0.7,-0.78 -1.66,0.88 -1.66,0.88s-1.23,-0.7 -0.88,-1.57s-1.13,-4.2 -1.13,-4.2a8.46,8.46 0 0 1 -0.26,-3.93c0.43,-1.75 -2.19,-8 -2.19,-8a11.34,11.34 0 0 1 0.35,-3.15c0.44,-1.57 -3.32,-4.72 -3.32,-4.72s-3.67,-17.81 -11.44,-12s-6.48,13.88 -6.48,13.88z"/>
  <path id="svg_67" fill="#119195" d="m365.69,374.08l-2.36,6.7s5.59,20.79 8.21,25.16s6.47,10 6.47,10a23.94,23.94 0 0 0 14,1.74c7.52,-1.48 29.44,-5.41 29.44,-5.41a2.92,2.92 0 0 0 2.8,-1.05c1,-1.4 5.94,-2.1 5.94,-2.1s5.76,-8.38 -1.31,-11.88c0,0 -0.88,1.93 -4.63,0.61s-4.9,1.05 -4.9,1.05s-6.11,1.23 -9.52,0.79s-11.88,-0.61 -12.75,-1.31a1.11,1.11 0 0 0 -1.57,0.09a9.54,9.54 0 0 1 -2.8,-1.58c-0.7,-0.78 -1.66,0.88 -1.66,0.88s-1.22,-0.7 -0.87,-1.57s-1.14,-4.2 -1.14,-4.2a8.61,8.61 0 0 1 -0.26,-3.93c0.44,-1.75 -2.18,-8 -2.18,-8a10.91,10.91 0 0 1 0.35,-3.15c0.43,-1.57 -3.32,-4.72 -3.32,-4.72s-3.67,-17.81 -11.44,-12s-6.5,13.88 -6.5,13.88z"/>
  <path id="svg_68" opacity="0.1" d="m387.27,394.34s-8.56,1.75 -5.68,3.23s5.68,-3.23 5.68,-3.23z"/>
  <g id="svg_69" opacity="0.1">
   <path id="svg_70" d="m402.11,321.04a3.6,3.6 0 0 0 -2.66,-2.49c-1.84,-0.28 -3.39,1.33 -4.47,2.84a48.28,48.28 0 0 0 -3.1,5c-0.28,0.52 -0.76,2.2 -1.25,2.49c-0.67,0.39 -1,-0.65 -1.23,-1.24c-1.35,-3 -1,-6.45 -1.64,-9.63a55.71,55.71 0 0 1 -1.13,-5.61c-0.2,2.28 0.7,4.68 1.13,7c0.59,3.18 0.29,6.62 1.64,9.63c0.27,0.59 0.56,1.62 1.23,1.23c0.49,-0.29 1,-2 1.25,-2.48a47.24,47.24 0 0 1 3.1,-5c1.08,-1.52 2.63,-3.13 4.47,-2.84a3.6,3.6 0 0 1 2.66,2.49a6.84,6.84 0 0 1 0.35,2a9,9 0 0 0 -0.35,-3.39z"/>
   <path id="svg_71" d="m429.4,312.78a4.62,4.62 0 0 1 -1.21,2.09c-1.59,1.33 -4.11,0.08 -6.06,0.82c-0.4,0.15 -0.77,0.39 -1.19,0.51c-1.23,0.32 -2.43,-0.5 -3.52,-1.16s-2.6,-1.16 -3.55,-0.3c-1.23,1.12 -0.34,3.51 -1.61,4.59c-0.8,0.69 -2.07,0.45 -3,1s-1.16,1.79 -1.39,2.85s-0.67,2.28 -1.72,2.59s-2,-0.37 -3,-0.33c-0.21,0 -0.46,0 -0.6,-0.12a0.28,0.28 0 0 1 -0.07,-0.13c0,0.35 0,0.7 0,1.05a0.69,0.69 0 0 0 0.11,0.47c0.14,0.16 0.39,0.13 0.6,0.13c1,0 2.05,0.62 3,0.33s1.5,-1.52 1.72,-2.59s0.47,-2.27 1.39,-2.85s2.17,-0.33 3,-1c1.27,-1.08 0.38,-3.47 1.61,-4.59c0.95,-0.86 2.46,-0.37 3.55,0.29s2.29,1.49 3.52,1.16a12.45,12.45 0 0 0 1.19,-0.5c1.95,-0.74 4.47,0.51 6.06,-0.82a4.67,4.67 0 0 0 1.21,-2.09a13.08,13.08 0 0 0 0.88,-3.34a5.09,5.09 0 0 0 0,-1.17a14.81,14.81 0 0 1 -0.92,3.11z"/>
  </g>
  <ellipse id="svg_72" fill="#119195" ry="7.87" rx="40.92" cy="565.57" cx="255"/>
  <ellipse id="svg_73" fill="#3f3d56" ry="6.24" rx="4.76" cy="562.23" cx="254.32"/>
  <ellipse id="svg_74" fill="#3f3d56" ry="6.24" rx="4.76" cy="554.61" cx="254.32"/>
  <ellipse id="svg_75" fill="#3f3d56" ry="6.24" rx="4.76" cy="546.99" cx="254.32"/>
  <ellipse id="svg_76" fill="#3f3d56" ry="6.24" rx="4.76" cy="539.36" cx="254.32"/>
  <ellipse id="svg_77" fill="#3f3d56" ry="6.24" rx="4.76" cy="531.74" cx="254.32"/>
  <ellipse id="svg_78" fill="#3f3d56" ry="6.24" rx="4.76" cy="524.12" cx="254.32"/>
  <ellipse id="svg_79" fill="#3f3d56" ry="6.24" rx="4.76" cy="516.5" cx="254.32"/>
  <path id="svg_80" fill="#119195" d="m272.15,464.34a22.27,22.27 0 0 0 1.77,-2.62l-12.51,-2.05l13.53,0.1a22.87,22.87 0 0 0 0.44,-18.08l-18.16,9.42l16.78,-12.33a22.82,22.82 0 1 0 -37.69,25.54a22.52,22.52 0 0 0 -2.6,4.16l16.24,8.44l-17.32,-5.82a22.78,22.78 0 0 0 3.68,21.43a22.82,22.82 0 1 0 35.87,0a22.82,22.82 0 0 0 0,-28.21l-0.03,0.02z"/>
  <path id="svg_81" opacity="0.1" d="m231.39,478.44a22.71,22.71 0 0 0 4.89,14.11a22.82,22.82 0 1 0 35.87,0c3.06,-3.88 -40.76,-16.67 -40.76,-14.11z"/>
  <ellipse id="svg_82" fill="#119195" ry="7.87" rx="40.92" cy="638.57" cx="940"/>
  <ellipse id="svg_83" fill="#3f3d56" ry="6.24" rx="4.76" cy="635.23" cx="939.32"/>
  <ellipse id="svg_84" fill="#3f3d56" ry="6.24" rx="4.76" cy="627.61" cx="939.32"/>
  <ellipse id="svg_85" fill="#3f3d56" ry="6.24" rx="4.76" cy="619.99" cx="939.32"/>
  <ellipse id="svg_86" fill="#3f3d56" ry="6.24" rx="4.76" cy="612.36" cx="939.32"/>
  <ellipse id="svg_87" fill="#3f3d56" ry="6.24" rx="4.76" cy="604.74" cx="939.32"/>
  <ellipse id="svg_88" fill="#3f3d56" ry="6.24" rx="4.76" cy="597.12" cx="939.32"/>
  <ellipse id="svg_89" fill="#3f3d56" ry="6.24" rx="4.76" cy="589.5" cx="939.32"/>
  <path id="svg_90" fill="#119195" d="m957.15,537.34a22.27,22.27 0 0 0 1.77,-2.62l-12.51,-2.05l13.53,0.1a22.87,22.87 0 0 0 0.44,-18.08l-18.16,9.42l16.78,-12.33a22.82,22.82 0 1 0 -37.69,25.54a22.52,22.52 0 0 0 -2.6,4.16l16.24,8.44l-17.32,-5.82a22.78,22.78 0 0 0 3.68,21.43a22.82,22.82 0 1 0 35.87,0a22.82,22.82 0 0 0 0,-28.21l-0.03,0.02z"/>
  <path id="svg_91" opacity="0.1" d="m916.39,551.44a22.71,22.71 0 0 0 4.89,14.11a22.82,22.82 0 1 0 35.87,0c3.06,-3.88 -40.76,-16.67 -40.76,-14.11z"/>
  <ellipse id="svg_107" stroke-miterlimit="10" stroke="#ffffff" fill="none" ry="24" rx="119.5" cy="568.57" cx="255"/>
  <ellipse id="svg_108" stroke-miterlimit="10" stroke="#ffffff" fill="none" ry="24" rx="119.5" cy="638.57" cx="940"/>
  <ellipse id="svg_109" stroke-miterlimit="10" stroke="#ffffff" fill="none" ry="24" rx="119.5" cy="639.57" cx="120"/>
 </g>
</svg>